<svg xmlns="http://www.w3.org/2000/svg" viewBox="0 0 928 601"><defs><style>.cls-1{isolation:isolate;}.cls-2{fill:#f9f9f9;}.cls-24,.cls-3{fill:#237b5b;}.cls-4{fill:#a63991;}.cls-5{fill:#3060b8;}.cls-17,.cls-6{fill:#fa652f;}.cls-7{font-size:18px;fill:#333;font-family:Innerspace-Bold, Innerspace;font-weight:700;}.cls-10,.cls-8{fill:#84267b;}.cls-32,.cls-9{mix-blend-mode:multiply;}.cls-10,.cls-12,.cls-19,.cls-20,.cls-21,.cls-23,.cls-26{fill-rule:evenodd;}.cls-11,.cls-12{fill:#1d684b;}.cls-13{fill:#ffccaf;}.cls-13,.cls-16{stroke:#383838;}.cls-13,.cls-14,.cls-16,.cls-17,.cls-18,.cls-24,.cls-28,.cls-31{stroke-miterlimit:10;}.cls-14{fill:#fff;}.cls-14,.cls-17,.cls-18,.cls-24,.cls-28,.cls-31{stroke:#353535;}.cls-15,.cls-20{fill:#353535;}.cls-16,.cls-29{fill:#e09f82;}.cls-18{fill:none;}.cls-19{fill:#fefefe;}.cls-21{fill:#e8935a;}.cls-22,.cls-23{fill:#ce4e30;}.cls-25,.cls-26{fill:#274f96;}.cls-27{fill:#1e6349;}.cls-28{fill:#999;}.cls-30{fill:#0e293f;}.cls-31{fill:#ddd;}.cls-32{fill:#daeef7;}.cls-33{fill:#f47458;}.cls-34{fill:#9c6;}</style></defs><g class="cls-1"><g id="Слой_2" data-name="Слой 2"><g id="Слой_1-2" data-name="Слой 1"><rect class="cls-2" width="928" height="601"/><path class="cls-3" d="M346.83,304.07H205C205,162.32,320.32,47,462.07,47V188.83A115.38,115.38,0,0,0,346.83,304.07Z"/><path class="cls-4" d="M462.07,570C320.32,570,205,454.68,205,312.93H346.83A115.38,115.38,0,0,0,462.07,428.17Z"/><path class="cls-5" d="M470.93,570V428.17A115.38,115.38,0,0,0,586.17,312.93H728C728,454.68,612.68,570,470.93,570Z"/><path class="cls-6" d="M728,304.07H586.17A115.38,115.38,0,0,0,470.93,188.83V47C612.68,47,728,162.32,728,304.07Z"/><text class="cls-7" transform="translate(65.88 497.01)">НАВЧАННЯ — <tspan x="0" y="21.6">ЛЕГКО І З РАДІСТЮ</tspan></text><path class="cls-8" d="M320.3,365.5s6.91-1.67,9.8-6.2,9-12.27,11.73-12.35-2.85-3.66-4.72-3.3-14.83,4.15-14.83,4.15l-2.2,5.87-1.83,7.13Z"/><polygon class="cls-8" points="367.73 571 370.12 571 366.32 446.05 363.93 446.05 367.73 571"/><polygon class="cls-8" points="302.66 571 300.27 571 304.07 446.05 306.45 446.05 302.66 571"/><path class="cls-8" d="M373.33,385.53h-1.91a40.69,40.69,0,0,1-5.84,1.43,154.22,154.22,0,0,1-20.25,2.38c-3.06.11-6.2.14-9,.14h-2.2c-2.83,0-6,0-9-.14A154.22,154.22,0,0,1,304.83,387a40.69,40.69,0,0,1-5.84-1.43h-1.9c-2.43,0-4.31,2.49-4,5.3l8.8,82.14a4.37,4.37,0,0,0,3.75,4.12l26.43,2a3.71,3.71,0,0,0,3.15-1.41,3.69,3.69,0,0,0,3.14,1.41l26.44-2a4.37,4.37,0,0,0,3.74-4.12l8.8-82.14C377.64,388,375.76,385.53,373.33,385.53Z"/><path class="cls-8" d="M357.53,392.16s13.2-23.55,16.41-28.55,11.57-24.89,11.87-25.68-5.76-10.19-4.4-10.52,2.84,5,4.29,4.33,5.66-13.35,6.48-12.72c1.54,1.18-2.27,7.89-1.45,8.32s3.3-7.39,4.91-7.16-3.06,7.16-2.61,7.77,5.3-5.91,6.18-4.52c.48.75-4.46,5.69-3.51,6.16s5.34-2.73,5.8-1.81-4.06,2.18-5.41,4.66-3.66,3.55-4.62,8.14-7.29,29.49-12.2,37.78-10.79,18.34-10.79,18.34Z"/><path class="cls-8" d="M345.88,343.32c-11.91-6.29-25.58,2-28.17,5.35s-1.32,16.18,1,20.93,4.93,14.75,10.29,12.91c1-.34,8.45-3.16,8.67-5.39,1,2,8.84,1.91,9.89,1.86,5.66-.24,4.85-10.58,5.3-15.86S349.63,345.3,345.88,343.32Z"/><path class="cls-8" d="M324.18,389.44s-5.56-.79-14.23,7.55-20.34,18.53-15.29,26.66l21.28-.51S328.8,408,329,407.23,324.18,389.44,324.18,389.44Z"/><path class="cls-8" d="M383.6,372.05l-12-7.38s-16.77,24.75-21.18,24.77H350c-3.44-.09-7.92-.34-12.29-.62v-.05l-.38,0-.38,0v.05c-4.36.28-8.85.53-12.28.62h-.46c-1.75.18-8.05,2.2-10.41,21.83l-5.57,46.39a141.29,141.29,0,0,0,28.72,4.51v0l.38,0,.38,0v0a141.31,141.31,0,0,0,28.73-4.51l-4.51-37.54a21.29,21.29,0,0,1,3.45-14.43C373.52,393.56,383.6,372.05,383.6,372.05Z"/><path class="cls-8" d="M343.46,381.36c0,.16.73,6.21,1.14,9.41a2.53,2.53,0,0,1-1.71,2.71c-3.05,1-9,2.27-12.54-1.72a1.65,1.65,0,0,1-.4-1.34l2-14.05Z"/><path class="cls-8" d="M342.2,384.41a2.3,2.3,0,0,0,.8-.5c-.16-1.43-.28-2.48-.27-2.55l-10.82-5-.91,6.91C334.38,386.55,339.49,385.38,342.2,384.41Z"/><path class="cls-8" d="M322.64,368.13c1,2.25.63,4.64-.9,5.33s-3.58-.57-4.61-2.82-.62-4.63.9-5.33S321.62,365.88,322.64,368.13Z"/><path class="cls-8" d="M348.08,363.3c-.13,2.47,1.12,4.54,2.79,4.63s3.13-1.84,3.26-4.31-1.12-4.55-2.79-4.63S348.21,360.83,348.08,363.3Z"/><path class="cls-8" d="M350.24,362c2,10.38-3,20-11.2,21.59s-16.37-5.6-18.34-16,3-20.05,11.2-21.6S348.27,351.58,350.24,362Z"/><path class="cls-8" d="M330.17,388.76a12.9,12.9,0,0,0,7.44,5.74s-3.82,1.43-6,.49S327.76,392.22,330.17,388.76Z"/><path class="cls-8" d="M344.35,388.76A12.79,12.79,0,0,1,337,394.5s3.78,1.43,5.94.49S346.74,392.22,344.35,388.76Z"/><path class="cls-8" d="M347.85,424.13c.27-.42-.41-1.14-.93-1.67a23,23,0,0,0-4.6-2.26,31.89,31.89,0,0,0-7.53,1.16,7.5,7.5,0,0,1-2.93.4s-25.38-9.25-31.08-7.54-8,7.08-6.27,10.5,35.06,1.14,35.34,1.12c4.08,0,8,.29,8.35.28,1.36,0,3.85-1.46,4.42-1.67a4.1,4.1,0,0,1,2.53.33c.79.37,3.07,1.24,3.45,1S347.85,424.13,347.85,424.13Z"/><rect class="cls-8" x="266.1" y="433.33" width="4.72" height="138.67"/><rect class="cls-8" x="419.14" y="432.33" width="4.72" height="138.67"/><path class="cls-8" d="M333.32,543.81s-.19,12.27,1.41,15.84-1,9.08-1.22,9.86-4.29,1.48-10.57.16-6-2.77-5.27-5.08,4.44-5,4.88-7.21-.89-10.53-.89-10.53Z"/><path class="cls-8" d="M322.05,570.53c-6.46-1.36-5.33-4.48-4.55-6.85.49-1.49,2.54-3.09,3.84-4.67a10.83,10.83,0,0,0,4.15,2.57c2.86,1.17,7.08-.14,9.76-1a31.12,31.12,0,0,1,0,8.49C335.08,569.92,328.52,571.9,322.05,570.53Z"/><path class="cls-8" d="M333.46,494.93c.3,10.07,1.75,60.23,1.75,60.23l-15.35.32s-12-66.51-10-76.29,9-9.9,9-9.9S332.67,468.25,333.46,494.93Z"/><path class="cls-8" d="M338.77,543.81s.2,12.27-1.4,15.84,1,9.08,1.21,9.86,4.3,1.48,10.57.16,6-2.77,5.28-5.08-4.45-5-4.88-7.21.88-10.53.88-10.53Z"/><path class="cls-8" d="M350,570.53c6.47-1.36,5.33-4.48,4.55-6.85-.48-1.49-2.54-3.09-3.83-4.67a11,11,0,0,1-4.16,2.57c-2.86,1.17-7.07-.14-9.76-1a31.55,31.55,0,0,0,0,8.49C337,569.92,343.58,571.9,350,570.53Z"/><path class="cls-8" d="M338.64,494.93c-.3,10.07-1.75,60.23-1.75,60.23l15.34.32s12-66.51,10-76.29-9-9.9-9-9.9S339.43,468.25,338.64,494.93Z"/><rect class="cls-8" x="259" y="427" width="179" height="5.33"/><rect class="cls-8" x="270" y="442.8" width="150" height="65.8"/><rect class="cls-8" x="266" y="517" width="157" height="5.88"/><path class="cls-8" d="M390.17,416.18h-1.58a1.51,1.51,0,0,1,.93-.31h39.34a3.68,3.68,0,0,1,3.72,3.65v2.32a3.69,3.69,0,0,1-3.72,3.65l-38.9,0Z"/><path class="cls-8" d="M412.5,415.87a3.54,3.54,0,0,1,3.56,3.5V422a3.53,3.53,0,0,1-3.56,3.49H388v-.59h.1l6.23-.58,1.25-4.83s-2.42-2.68-2.58-2.74-4.9-.28-4.9-.28H388v-.59Z"/><path class="cls-8" d="M389.6,420.66a5.85,5.85,0,0,0-1.49-4.2H412a3.25,3.25,0,0,1,3.27,3.21v2a3.24,3.24,0,0,1-3.27,3.21H388.11S389.6,424.22,389.6,420.66Z"/><g class="cls-9"><path class="cls-8" d="M415.27,419.67v2a3.18,3.18,0,0,1-.1.77,7,7,0,0,0-5.29-4.39c-6.86-1.39-21.77-1.6-21.77-1.6H412A3.25,3.25,0,0,1,415.27,419.67Z"/></g><path class="cls-8" d="M434.24,408.49h1.57a1.77,1.77,0,0,0-.93-.25H395.53c-2.06,0-3.73,1.3-3.73,2.9V413c0,1.6,1.67,2.89,3.73,2.89h38.91Z"/><path class="cls-8" d="M411.9,408.25c-2,0-3.57,1.24-3.57,2.77v2.08c0,1.53,1.6,2.77,3.57,2.77h24.49v-.47h-.1l-6.23-.46-1.25-3.83s2.43-2.13,2.58-2.18,4.9-.22,4.9-.22h.1v-.46Z"/><path class="cls-8" d="M434.81,412a4.23,4.23,0,0,1,1.49-3.33H412.4c-1.81,0-3.28,1.14-3.28,2.55v1.6c0,1.4,1.47,2.54,3.28,2.54h23.9S434.81,414.87,434.81,412Z"/><g class="cls-9"><path class="cls-8" d="M409.12,411.26v1.6a2.11,2.11,0,0,0,.1.61,6.78,6.78,0,0,1,5.29-3.49c6.87-1.1,21.79-1.27,21.79-1.27H412.4C410.59,408.71,409.12,409.85,409.12,411.26Z"/></g><polygon class="cls-8" points="371.59 364.7 383.54 372.17 384.89 369.1 373.55 362.4 371.59 364.7"/><path class="cls-8" d="M333.19,374.8l9-2.14a4.12,4.12,0,0,1-3.28,4.65C334.11,378.6,333.19,374.8,333.19,374.8Z"/><polygon class="cls-8" points="431.31 412 429.79 414.4 428.1 412 431.31 412"/><g class="cls-9"><path class="cls-8" d="M409.15,412h25.66v-.19s-25.69,0-25.69,0Z"/></g><polygon class="cls-8" points="393.11 420.88 394.62 423.28 396.32 420.88 393.11 420.88"/><g class="cls-9"><path class="cls-8" d="M415.27,420.88H389.61v-.19s25.68,0,25.68,0Z"/></g><path class="cls-8" d="M394.31,400.89h-1.24a1.24,1.24,0,0,1,.73-.25h31.08a2.92,2.92,0,0,1,2.94,2.89v1.83a2.92,2.92,0,0,1-2.94,2.89H394.15Z"/><path class="cls-8" d="M412,400.65a2.79,2.79,0,0,1,2.82,2.76v2.07a2.79,2.79,0,0,1-2.82,2.76H392.61v-.46h.08l4.92-.46,1-3.82s-1.92-2.11-2-2.17-3.87-.22-3.87-.22h-.08v-.46Z"/><path class="cls-8" d="M393.48,404.43a4.6,4.6,0,0,0-1.2-3.32h19.23a2.59,2.59,0,0,1,2.63,2.54v1.59a2.59,2.59,0,0,1-2.63,2.54H392.28S393.48,407.24,393.48,404.43Z"/><g class="cls-9"><path class="cls-8" d="M414.14,403.65v1.59a2.48,2.48,0,0,1-.07.61,5.53,5.53,0,0,0-4.18-3.47c-5.42-1.1-17.21-1.27-17.21-1.27h18.88A2.57,2.57,0,0,1,414.14,403.65Z"/></g><polygon class="cls-8" points="407.19 404.27 408.53 406.64 409.73 404.27 407.19 404.27"/><g class="cls-9"><path class="cls-8" d="M414.14,404.27H393.85v-.19s20.29,0,20.29,0Z"/></g><path class="cls-10" d="M327.44,360.79a2.65,2.65,0,1,1-2.58,2.88,2.74,2.74,0,0,1,2.58-2.88Z"/><path class="cls-10" d="M327.77,361.37a1.9,1.9,0,1,1-1.72,2.06,1.89,1.89,0,0,1,1.72-2.06Z"/><path class="cls-10" d="M342.91,359a2.64,2.64,0,1,1-2.39,2.86,2.63,2.63,0,0,1,2.39-2.86Z"/><path class="cls-10" d="M342.55,359.85a1.9,1.9,0,1,1-1.57,2,1.83,1.83,0,0,1,1.57-2Z"/><path class="cls-10" d="M325.22,363.36a3.19,3.19,0,0,1,4.73-1.15c.36.27.62.6.23-.18a2.9,2.9,0,0,0-3.66-1.06,2.87,2.87,0,0,0-1.75,2.82c.08.67.21,0,.45-.43Z"/><path class="cls-10" d="M326.89,362.37a.53.53,0,1,1,.09,1.06.52.52,0,0,1-.57-.48.54.54,0,0,1,.48-.58Z"/><path class="cls-10" d="M341.7,360.77a.54.54,0,0,1,.58.48.52.52,0,0,1-.48.58.53.53,0,0,1-.58-.48.54.54,0,0,1,.48-.58Z"/><path class="cls-10" d="M340.91,360.9c-.32.3-.6.78-.36,0a2.63,2.63,0,0,1,2.95-1.8,2.5,2.5,0,0,1,2.34,2.26c0,.22-.1.09-.2,0a3,3,0,0,0-4.73-.37Z"/><path class="cls-10" d="M338.78,366.71c.12,2.1-3.17,2.36-3.5.86a3.63,3.63,0,0,0,1.57.13,3.07,3.07,0,0,0,1.93-1Z"/><path class="cls-10" d="M324.4,360.19a7,7,0,0,1,3.65-1.73c1.72-.28.81-1.17,0-1.11a6,6,0,0,0-4.09,2.3c-.64.9-.58,1.75.47.54Z"/><path class="cls-10" d="M345,357.9a5.83,5.83,0,0,0-3.65-.72c-1.64.19-.95-.93-.17-1.09a5,5,0,0,1,4.16,1.15c.74.71.83,1.56-.34.66Z"/><path class="cls-11" d="M269.33,106.56c-.37-.08-.77-.15-1.19-.21L265,104a1.52,1.52,0,1,0-1.83,2.43l0,0c-1.6.35-2.87,1.08-3.16,2.35-.64,2.8,3.16,5.29,7.11,6.31,3.16.81,5.28.55,6.37-3.33C274.47,108.51,272.6,107.3,269.33,106.56Z"/><path class="cls-11" d="M269.62,116a10.35,10.35,0,0,1-2.56-.39c-4.12-1.06-8.21-3.67-7.48-6.9a3.67,3.67,0,0,1,2.76-2.52,2,2,0,0,1,.14-2.19,2,2,0,0,1,2.86-.38l3,2.26c.38.06.76.12,1.1.2h0c1.59.37,3.52,1,4.37,2.39a4.24,4.24,0,0,1,.22,3.46C273.17,115,271.65,116,269.62,116Zm-5.54-11.8a1,1,0,0,0-.81.4,1,1,0,0,0,.24,1.45l.86.65-1,.26c-1.12.24-2.51.79-2.78,2-.56,2.44,3.06,4.76,6.75,5.72,3,.78,4.77.53,5.75-3A3.39,3.39,0,0,0,273,109c-.52-.86-1.67-1.45-3.74-1.92h0c-.36-.08-.75-.15-1.15-.21l-.13,0-3.2-2.41A1.09,1.09,0,0,0,264.08,104.19Z"/><path class="cls-11" d="M265.22,107v8.32a2.69,2.69,0,1,0,5.37,0V107Z"/><path class="cls-11" d="M267.91,118.54a3.19,3.19,0,0,1-3.19-3.19v-8.82h6.37v8.82A3.19,3.19,0,0,1,267.91,118.54Zm-2.19-11v7.82a2.19,2.19,0,1,0,4.37,0v-7.82Z"/><rect class="cls-11" x="264.71" y="106.22" width="6.36" height="1.79"/><path class="cls-11" d="M337.73,247.51c-1.34,4.87-1.52,15.74-7.76,15.69-5.63-.05-4.64-12.16-4.82-17.2-.15-4.49,3.09-8.7,8.45-7.46C337.08,239.35,339.06,242.65,337.73,247.51Z"/><path class="cls-11" d="M350.42,248.15c0,5.93-4.49,12.13-10.12,10.25-6-2-12.36-5.82-12.36-11.74s5.13-8,12.74-8.8C346.57,237.23,350.42,242.23,350.42,248.15Z"/><path class="cls-11" d="M342.34,259.25a7.15,7.15,0,0,1-2.2-.37c-4.74-1.58-12.7-5.27-12.7-12.22s6.67-8.6,13.18-9.3a8.54,8.54,0,0,1,6.78,2.12,11.58,11.58,0,0,1,3.52,8.67,12.41,12.41,0,0,1-4.56,9.74A6.85,6.85,0,0,1,342.34,259.25Zm-.68-20.95c-.3,0-.62,0-.93,0-8.61.92-12.29,3.41-12.29,8.31,0,6.32,7.53,9.77,12,11.27a5.71,5.71,0,0,0,5.32-.85,11.34,11.34,0,0,0,4.15-8.93,10.55,10.55,0,0,0-3.19-7.92A7.43,7.43,0,0,0,341.66,238.3Z"/><path class="cls-11" d="M342.77,87.13c.63,2.72-.35,5.27-2.19,5.69s-3.84-1.43-4.47-4.15.36-5.27,2.2-5.7S342.15,84.41,342.77,87.13Z"/><path class="cls-11" d="M340.06,93.38c-1.91,0-3.81-1.91-4.43-4.6a6.9,6.9,0,0,1,.19-4,3.44,3.44,0,0,1,2.38-2.29c2.1-.49,4.37,1.55,5.06,4.53h0a6.9,6.9,0,0,1-.19,4,3.46,3.46,0,0,1-2.38,2.29A2.7,2.7,0,0,1,340.06,93.38Zm-1.21-10a2.1,2.1,0,0,0-.43,0,2.52,2.52,0,0,0-1.67,1.68,5.91,5.91,0,0,0-.15,3.41c.57,2.45,2.3,4.15,3.87,3.79a2.54,2.54,0,0,0,1.67-1.68,6,6,0,0,0,.15-3.42C341.77,85,340.29,83.41,338.85,83.41Z"/><path class="cls-11" d="M372,87.52c-.7,2.7.21,5.28,2,5.75s3.88-1.34,4.57-4-.21-5.28-2-5.75S372.69,84.82,372,87.52Z"/><path class="cls-11" d="M374.62,93.84a2.74,2.74,0,0,1-.7-.09,3.46,3.46,0,0,1-2.32-2.35,7,7,0,0,1-.09-4h0c.77-3,3.09-4.93,5.18-4.39A3.44,3.44,0,0,1,379,85.35a6.94,6.94,0,0,1,.09,4C378.42,92,376.5,93.84,374.62,93.84ZM376,83.9c-1.43,0-2.93,1.56-3.49,3.74h0a6,6,0,0,0,.06,3.42,2.48,2.48,0,0,0,1.63,1.72c1.55.41,3.33-1.25,4-3.68a6,6,0,0,0-.06-3.41A2.51,2.51,0,0,0,376.44,84,1.84,1.84,0,0,0,376,83.9Z"/><path class="cls-11" d="M337.84,174.61s-4.2,58.45-3.41,77.93c.11,2.55.46,6.6,7.92,6.6,7.81,0,8.68-5.23,8.68-5.23l6.54-56.76L366.4,299l9.53.1,1.25-124.24Z"/><path class="cls-11" d="M376.43,299.62l-10.49-.12-8.44-97.37-6,51.84c0,.08-1,5.67-9.17,5.67s-8.32-4.78-8.41-7.08c-.79-19.29,3.36-77.4,3.4-78l0-.47,40.32.27Zm-9.58-1.11,8.59.1,1.24-123.24-38.37-.25c-.4,5.57-4.12,59.09-3.38,77.4.1,2.29.25,6.12,7.42,6.12s8.15-4.61,8.18-4.81l7.11-61.66Z"/><polygon class="cls-11" points="353.69 242.35 357.57 197.15 359.39 242.3 378.67 241.99 377.18 174.87 337.84 174.61 333.3 242.42 353.69 242.35"/><path class="cls-11" d="M332.76,242.93l4.61-68.82,40.3.27,1.51,68.1-20.27.32-1.52-37.71-3.24,37.76Zm5.55-67.81-4.48,66.8,19.4-.07,3.84-44.74,1,0,1.8,44.66,18.29-.29-1.47-66.13Z"/><path class="cls-11" d="M344.37,110.32a27.38,27.38,0,0,0-5.13,8.29h36.94a14.93,14.93,0,0,0-7.18-10,17.51,17.51,0,0,0-6.46-2v-2.86c5.67-1.61,10.42-6.16,11.4-15.64,1.07-10.22-5.5-21.63-16.81-21.63S339,77.74,340.51,87.91c1.39,9.61,5.69,14,10.92,15.71v3C348.78,107,346.85,108.08,344.37,110.32Z"/><path class="cls-11" d="M376.8,119.11H338.55l.22-.65A27.84,27.84,0,0,1,344,110c2.51-2.28,4.42-3.32,6.89-3.75V104c-6-2.06-9.68-7.45-10.92-16a20.59,20.59,0,0,1,4.68-16.24A16.28,16.28,0,0,1,357.13,66a15.89,15.89,0,0,1,12.06,5.45,22.2,22.2,0,0,1,5.25,16.74c-1.1,10.56-6.72,14.52-11.4,16v2a17.46,17.46,0,0,1,6.21,2,15.38,15.38,0,0,1,7.42,10.34Zm-36.84-1h35.58a14.27,14.27,0,0,0-6.79-9.08,16.68,16.68,0,0,0-6.28-1.92l-.43-.06v-3.68l.36-.1c6.38-1.81,10.2-7.06,11.05-15.21a21.2,21.2,0,0,0-5-16A14.9,14.9,0,0,0,357.13,67a15.14,15.14,0,0,0-11.68,5.41A19.61,19.61,0,0,0,341,87.84c1.21,8.3,4.77,13.45,10.58,15.31l.35.11v3.81l-.43.06c-2.46.34-4.3,1.31-6.79,3.56h0A27.73,27.73,0,0,0,340,118.11Z"/><path class="cls-11" d="M455.37,108.81c-.29-1.27-1.56-2-3.16-2.35l0,0a1.52,1.52,0,1,0-1.82-2.43l-3.1,2.34c-.42.05-.83.13-1.2.21-2.73.62-4.46,1.59-4.42,3.79a152,152,0,0,1-31.25,4.58c-13.93.44-29.56-3.31-36.94-2.64-1.52.14-1.26,3.41.15,6.09,3.1,5.87,4.89,5,7,4.75,7.76-.73,20,2.21,30.7.77A139.47,139.47,0,0,0,443.83,115c1.14.74,2.61.63,4.43.16C452.22,114.1,456,111.61,455.37,108.81Z"/><path class="cls-11" d="M404.69,124.8c-4.07,0-8.17-.37-11.94-.7a72.82,72.82,0,0,0-12.06-.47l-.6.07c-1.93.25-3.93.51-6.88-5.08-1.19-2.27-1.58-4.8-.92-6a1.43,1.43,0,0,1,1.16-.79c3.46-.32,8.64.31,14.62,1,7,.86,14.89,1.82,22.36,1.59A152.05,152.05,0,0,0,441.2,110c.19-2.49,2.51-3.37,4.8-3.89.35-.08.72-.14,1.11-.2l3-2.26a2.07,2.07,0,0,1,1.54-.4A2,2,0,0,1,453,104a2,2,0,0,1,.14,2.19,3.67,3.67,0,0,1,2.75,2.52h0c.74,3.23-3.36,5.84-7.47,6.9-1.5.39-3.21.68-4.6-.08a141.21,141.21,0,0,1-32.38,8.87A49.7,49.7,0,0,1,404.69,124.8Zm-21.25-2.28c2.83,0,6,.28,9.4.58,5.82.52,12.42,1.11,18.43.3a139.42,139.42,0,0,0,32.37-8.9l.25-.1.22.14c.87.57,2.08.6,4,.1,3.68-1,7.3-3.28,6.75-5.72h0c-.28-1.18-1.67-1.73-2.79-2l-1.08-.24.89-.66a1,1,0,0,0,.26-1.46,1,1,0,0,0-.66-.39,1.1,1.1,0,0,0-.8.21l-3.21,2.41-.13,0c-.4.06-.79.13-1.15.21-2.93.67-4.06,1.59-4,3.3v.39l-.38.1a153.82,153.82,0,0,1-31.36,4.59c-7.55.24-15.5-.74-22.51-1.59-5.93-.73-11.05-1.35-14.41-1a.45.45,0,0,0-.37.28c-.43.79-.19,3,.93,5.08,2.62,5,4.12,4.79,5.86,4.56l.64-.07C381.49,122.55,382.44,122.52,383.44,122.52Z"/><path class="cls-11" d="M271,114.7a138.83,138.83,0,0,0,33.09,9.2c10.74,1.44,22.95-1.5,30.7-.77,2.1.2,3.9,1.12,7-4.75,1.41-2.68,1.67-5.95.16-6.09-7.39-.67-23,3.08-36.95,2.64a151.29,151.29,0,0,1-33.67-5.23Z"/><path class="cls-11" d="M310.75,124.8a49.66,49.66,0,0,1-6.71-.41,140.54,140.54,0,0,1-33.23-9.23l-.32-.14.38-6,.6.18A151.84,151.84,0,0,0,305,114.43c7.46.23,15.38-.73,22.36-1.59,6-.73,11.15-1.36,14.61-1a1.43,1.43,0,0,1,1.16.79c.75,1.38.11,4.08-.91,6-3,5.59-4.95,5.33-6.89,5.08l-.59-.07a72.82,72.82,0,0,0-12.06.47C318.92,124.43,314.83,124.8,310.75,124.8Zm-39.22-10.42a139.87,139.87,0,0,0,32.64,9c6,.81,12.62.22,18.44-.3a73.59,73.59,0,0,1,12.24-.46l.63.07c1.74.23,3.24.42,5.87-4.56,1.12-2.13,1.35-4.3.92-5.08a.44.44,0,0,0-.37-.28c-3.35-.3-8.47.32-14.4,1-7,.85-15,1.83-22.51,1.59a154,154,0,0,1-33.2-5.08Z"/><path class="cls-11" d="M395.69,113.1s-19.85-4.16-24.59-3.33a14,14,0,0,0-1.29-1,16.86,16.86,0,0,0-3.35-1.36,11.31,11.31,0,0,1-19.52.79c-.7.37-1.87,1-2.62,1.54-4.78-.81-24.57,3.33-24.57,3.33l.92,12s9.75-.1,17-.11c-.16,2.14-.23,4-.3,5-1.38,18.82-3.3,52.85-3.3,52.85l46.57-1.19s-1.37-41-2.69-55.88c0-.23,0-.47-.07-.74,7.24,0,16.9.11,16.9.11Z"/><path class="cls-11" d="M333.54,183.35l0-.55c0-.34,1.93-34.25,3.3-52.86,0-.37.06-.89.09-1.51,0-.82.1-1.82.17-2.91-7.1,0-16.36.11-16.46.11h-.47l-1-12.93.43-.09c.8-.16,19.43-4,24.55-3.36.81-.53,1.93-1.16,2.5-1.46l.41-.21.24.38a10.81,10.81,0,0,0,18.67-.77l.2-.36.5.17a14.28,14.28,0,0,1,3.36,1.38,11.36,11.36,0,0,1,1.17.87c5.14-.68,23.74,3.2,24.54,3.36l.43.09-1,12.93h-.47c-.09,0-9.25-.09-16.34-.11,0,.07,0,.13,0,.19,1.3,14.76,2.67,55.5,2.69,55.91l0,.51Zm4.67-58.83,0,.54c-.1,1.28-.16,2.48-.21,3.42,0,.63-.06,1.16-.09,1.53-1.27,17.31-3,47.87-3.27,52.31l45.52-1.17c-.16-4.74-1.44-41.51-2.67-55.35,0-.22,0-.46-.07-.72l-.07-.56h.57c6.25,0,14.41.08,16.43.1l.85-11.12c-2.91-.59-19.76-4-24-3.23l-.23,0-.18-.16a12.11,12.11,0,0,0-1.24-.93,12.44,12.44,0,0,0-2.85-1.18,11.8,11.8,0,0,1-19.91.85c-.64.35-1.55.87-2.18,1.29l-.16.12-.2,0c-4.25-.72-21.05,2.65-24,3.24l.85,11.12c2,0,10.27-.09,16.54-.1Z"/><path class="cls-11" d="M449,112A131.27,131.27,0,0,0,434.88,66c-11.2-20.9-33.65-45.81-77-45.81S292.56,43.8,281.74,63.59A117.32,117.32,0,0,0,268.5,107l-1-.06a118.25,118.25,0,0,1,13.37-43.86c10.94-20,33.19-43.9,77-43.9s66.55,25.21,77.88,46.37A132.27,132.27,0,0,1,450,111.89Z"/><path class="cls-11" d="M446.93,107v8.32a2.69,2.69,0,1,0,5.37,0V107Z"/><path class="cls-11" d="M449.61,118.54a3.19,3.19,0,0,1-3.18-3.19v-8.82h6.37v8.82A3.19,3.19,0,0,1,449.61,118.54Zm-2.18-11v7.82a2.19,2.19,0,1,0,4.37,0v-7.82Z"/><rect class="cls-11" x="446.42" y="106.22" width="6.37" height="1.79"/><path class="cls-11" d="M375.93,299.11s9.74,17.05,2.74,17.05c-8.32,0-12.27-17.15-12.27-17.15Z"/><path class="cls-11" d="M336.92,85.73s3.72.85,3.84-5.69,9.35-2.48,17.55-11.14c0,0,.63,7.06,12.18,7.06,3.58,0,1.36,10.13,6,12,0,0,11.47-27-14.41-31.24C351.58,54.94,331,58.6,336.92,85.73Z"/><path class="cls-11" d="M352.38,96.57l10.9-.63a4.88,4.88,0,0,1-4.8,4.74C352.65,101.19,352.38,96.57,352.38,96.57Z"/><path class="cls-11" d="M357.61,101.22a6,6,0,0,1-4-1.31,5.1,5.1,0,0,1-1.69-3.32l0-.5,11.93-.68v.53a5.41,5.41,0,0,1-5.26,5.24C358.21,101.2,357.9,101.22,357.61,101.22ZM353,97a4.16,4.16,0,0,0,1.27,2.13,5.52,5.52,0,0,0,4.21,1,4.33,4.33,0,0,0,4.28-3.7Z"/><path class="cls-12" d="M364.68,82.76a2.64,2.64,0,1,0,3,2.42,2.73,2.73,0,0,0-3-2.42Z"/><path class="cls-12" d="M364.44,83.38a1.9,1.9,0,1,0,2,1.75,1.91,1.91,0,0,0-2-1.75Z"/><path class="cls-12" d="M349.39,83.48a2.88,2.88,0,1,0,3.08,2.66,2.88,2.88,0,0,0-3.08-2.66Z"/><path class="cls-12" d="M349.81,84.3a2.08,2.08,0,0,0-1.88,2.23,2,2,0,0,0,2.16,1.9A2.07,2.07,0,0,0,352,86.21a2,2,0,0,0-2.16-1.91Z"/><path class="cls-12" d="M367.28,84.93a3.19,3.19,0,0,0-4.86-.37c-.31.32-.51.69-.25-.14a3,3,0,0,1,5.62.87c0,.67-.21,0-.51-.36Z"/><path class="cls-12" d="M365.47,84.23a.53.53,0,0,0-.49.57.53.53,0,1,0,.49-.57Z"/><path class="cls-12" d="M351,85.13a.57.57,0,0,0-.53.62.58.58,0,0,0,.62.54.58.58,0,1,0-.09-1.16Z"/><path class="cls-12" d="M351.87,85.13c.4.27.78.73.38-.12a2.89,2.89,0,0,0-3.5-1.42,2.72,2.72,0,0,0-2.12,2.85c0,.24.13.07.21-.08a3.23,3.23,0,0,1,5-1.23Z"/><path class="cls-12" d="M355.43,90.42c.22,2.1,3.51,1.82,3.6.29a3.82,3.82,0,0,1-1.53.38,3.08,3.08,0,0,1-2.07-.67Z"/><path class="cls-12" d="M367.58,80.68a7,7,0,0,0-3.88-1.13c-1.75,0-1-1-.16-1.1A6,6,0,0,1,368,80.06c.78.79.86,1.64-.37.62Z"/><path class="cls-12" d="M346.83,81.73a5.83,5.83,0,0,1,3.5-1.29c1.64-.08.78-1.07,0-1.11a5,5,0,0,0-3.92,1.81c-.61.82-.57,1.67.44.59Z"/><text class="cls-7" transform="translate(719.88 496.12)">ЗДОРОВ&apos;Я ЗАРАЗ І <tspan x="0" y="21.6">В МАЙБУТНЬОМУ</tspan></text><text class="cls-7" transform="translate(719.15 107.95)">ГАРНИЙ <tspan x="0" y="21.6">НАСТРІЙ</tspan></text><text class="cls-7" transform="translate(66.93 108.82)">ФІЗИЧНА СИЛА ТА <tspan x="0" y="21.6">ВИТРИВАЛІСТЬ</tspan></text><path class="cls-3" d="M61,61.3s.07,0,.07-.06a4.08,4.08,0,0,1,3.33-3.3A4.41,4.41,0,0,1,68.93,60c2.81,3.73,5.69,7.42,8.55,11.13l.53.64c1.59-2,3.13-3.84,4.66-5.74L95.9,49.7a4.11,4.11,0,0,1,5.92-.77,4.06,4.06,0,0,1,.53,5.93Q92.47,67.1,82.53,79.31a15.19,15.19,0,0,0-1,1.27,4.18,4.18,0,0,1-7.16.27c-2.4-3.1-4.79-6.22-7.18-9.33-1.61-2.09-3.26-4.16-4.82-6.28A21.86,21.86,0,0,1,61,62.62Z"/><path class="cls-6" d="M719,61.48s.07,0,.07-.06a4.09,4.09,0,0,1,3.33-3.31,4.42,4.42,0,0,1,4.53,2c2.81,3.74,5.69,7.42,8.55,11.13l.53.64,4.66-5.73L753.9,49.87a4.11,4.11,0,0,1,5.92-.77,4.07,4.07,0,0,1,.53,5.94q-9.89,12.23-19.82,24.44c-.33.42-.68.83-1,1.27a4.18,4.18,0,0,1-7.16.27c-2.4-3.1-4.79-6.22-7.18-9.33-1.61-2.09-3.26-4.15-4.82-6.28A21.72,21.72,0,0,1,719,62.8Z"/><path class="cls-4" d="M61,451.16s.07,0,.07-.06a4.09,4.09,0,0,1,3.33-3.31,4.42,4.42,0,0,1,4.53,2c2.81,3.74,5.69,7.43,8.55,11.13.15.2.31.38.53.64l4.66-5.73L95.9,439.55a4.11,4.11,0,0,1,5.92-.76,4.06,4.06,0,0,1,.53,5.93q-9.88,12.22-19.82,24.44c-.33.42-.68.83-1,1.27a4.18,4.18,0,0,1-7.16.27c-2.4-3.1-4.79-6.22-7.18-9.33-1.61-2.09-3.26-4.15-4.82-6.28a21.72,21.72,0,0,1-1.4-2.61Z"/><path class="cls-5" d="M719,453.16s.07,0,.07-.06a4.09,4.09,0,0,1,3.33-3.31,4.42,4.42,0,0,1,4.53,2c2.81,3.74,5.69,7.43,8.55,11.13.15.2.31.38.53.64l4.66-5.73,13.23-16.33a4.11,4.11,0,0,1,5.92-.76,4.06,4.06,0,0,1,.53,5.93q-9.89,12.22-19.82,24.44c-.33.42-.68.83-1,1.27a4.18,4.18,0,0,1-7.16.27c-2.4-3.1-4.79-6.22-7.18-9.33-1.61-2.09-3.26-4.15-4.82-6.28a21.72,21.72,0,0,1-1.4-2.61Z"/><path class="cls-13" d="M282.06,110.13q-.57-.12-1.2-.21l-3.1-2.33a1.52,1.52,0,1,0-1.83,2.42l0,0c-1.61.35-2.88,1.08-3.17,2.36-.63,2.8,3.17,5.28,7.11,6.3,3.16.82,5.28.56,6.37-3.33C287.19,112.08,285.32,110.88,282.06,110.13Z"/><path class="cls-14" d="M278,110.6v8.33a2.69,2.69,0,0,0,5.37,0V110.6Z"/><rect class="cls-15" x="277.44" y="109.79" width="6.36" height="1.79"/><path class="cls-15" d="M350.45,251.08c-1.33,4.87-1.52,15.74-7.75,15.69-5.64,0-4.65-12.16-4.82-17.2-.16-4.49,3.09-8.7,8.45-7.45C349.8,242.92,351.78,246.22,350.45,251.08Z"/><path class="cls-16" d="M363.14,251.73c0,5.93-4.49,12.12-10.12,10.25-6-2-12.35-5.82-12.35-11.75s5.12-8,12.73-8.8C359.29,240.8,363.14,245.8,363.14,251.73Z"/><path class="cls-13" d="M355.5,90.71c.63,2.72-.36,5.26-2.2,5.69s-3.83-1.44-4.46-4.16.35-5.27,2.19-5.69S354.87,88,355.5,90.71Z"/><path class="cls-13" d="M384.72,91.09c-.7,2.71.22,5.28,2,5.75s3.87-1.34,4.57-4-.22-5.27-2-5.75S385.42,88.39,384.72,91.09Z"/><path class="cls-13" d="M350.56,178.19s-4.2,58.44-3.4,77.93c.1,2.54.46,6.59,7.92,6.59,7.81,0,8.67-5.22,8.67-5.22l6.54-56.77,8.83,101.86,9.54.11,1.25-124.24Z"/><polygon class="cls-17" points="366.41 245.92 370.29 200.72 372.11 245.87 391.39 245.57 389.9 178.44 350.56 178.19 346.02 246 366.41 245.92"/><path class="cls-13" d="M357.09,113.89a27.5,27.5,0,0,0-5.12,8.29H388.9a14.85,14.85,0,0,0-7.18-10,17.27,17.27,0,0,0-6.46-2v-2.86c5.68-1.6,10.42-6.16,11.41-15.63,1.06-10.22-5.51-21.63-16.82-21.63s-18.08,11.25-16.62,21.42c1.4,9.62,5.7,14,10.93,15.71v3C361.51,110.58,359.57,111.65,357.09,113.89Z"/><path class="cls-13" d="M468.1,112.39c-.29-1.28-1.56-2-3.17-2.36l0,0a1.52,1.52,0,1,0-1.83-2.42l-3.1,2.33q-.63.09-1.2.21c-2.72.63-4.45,1.59-4.41,3.8a152.33,152.33,0,0,1-31.25,4.57c-13.94.44-29.56-3.3-36.95-2.63-1.51.14-1.26,3.41.16,6.09,3.09,5.86,4.88,4.94,7,4.75,7.75-.73,19.95,2.2,30.7.76a139,139,0,0,0,32.49-8.94c1.13.74,2.61.63,4.43.16C464.94,117.67,468.74,115.19,468.1,112.39Z"/><path class="cls-13" d="M283.73,118.28a139.25,139.25,0,0,0,33.1,9.19c10.74,1.44,22.94-1.49,30.7-.76,2.1.19,3.89,1.11,7-4.75,1.4-2.68,1.67-5.95.15-6.09-7.38-.67-23,3.07-36.94,2.63a151.32,151.32,0,0,1-33.68-5.23Z"/><path class="cls-14" d="M408.42,116.68s-19.85-4.16-24.59-3.33a13.68,13.68,0,0,0-1.29-1,16.88,16.88,0,0,0-3.36-1.36,11.31,11.31,0,0,1-19.52.8c-.7.37-1.87,1-2.61,1.53-4.79-.81-24.57,3.34-24.57,3.34l.91,12s9.76-.1,17-.11c-.17,2.14-.23,4-.3,5-1.39,18.82-3.31,52.86-3.31,52.86l46.57-1.2s-1.37-41-2.68-55.88c0-.22-.05-.47-.08-.74,7.24,0,16.9.11,16.9.11Z"/><path class="cls-18" d="M280.72,110.57s5.52-87.29,89.9-87.29,91.59,92.22,91.59,92.22"/><path class="cls-14" d="M459.65,110.6v8.33a2.69,2.69,0,0,0,5.37,0V110.6Z"/><rect class="cls-15" x="459.14" y="109.79" width="6.37" height="1.79"/><path class="cls-15" d="M388.66,302.69s9.74,17,2.73,17c-8.31,0-12.27-17.15-12.27-17.15Z"/><path class="cls-15" d="M349.64,89.3s3.72.85,3.85-5.69,9.34-2.48,17.54-11.14c0,0,.64,7.07,12.18,7.07,3.59,0,1.36,10.12,6,11.94,0,0,11.48-27-14.41-31.24C364.31,58.51,343.69,62.18,349.64,89.3Z"/><path class="cls-14" d="M365.1,100.14l10.9-.62a4.87,4.87,0,0,1-4.79,4.73C365.37,104.76,365.1,100.14,365.1,100.14Z"/><path class="cls-19" d="M377.4,86.33a2.64,2.64,0,1,0,3,2.43,2.73,2.73,0,0,0-3-2.43Z"/><path class="cls-20" d="M377.17,87a1.88,1.88,0,0,0-1.75,2,1.9,1.9,0,1,0,1.75-2Z"/><path class="cls-19" d="M362.12,87.05a2.88,2.88,0,1,0,3.08,2.66,2.88,2.88,0,0,0-3.08-2.66Z"/><path class="cls-20" d="M362.54,87.88a2.06,2.06,0,0,0-1.88,2.22,2,2,0,0,0,2.16,1.9,2.08,2.08,0,0,0,1.88-2.22,2,2,0,0,0-2.16-1.9Z"/><path class="cls-20" d="M380,88.51a3.18,3.18,0,0,0-4.85-.38c-.31.33-.51.69-.25-.13a2.95,2.95,0,0,1,5.62.86c0,.67-.21,0-.52-.35Z"/><path class="cls-19" d="M378.2,87.8a.53.53,0,1,0,.07,1.06.52.52,0,0,0,.49-.57.53.53,0,0,0-.56-.49Z"/><path class="cls-19" d="M363.72,88.7a.58.58,0,1,0,.08,1.16.58.58,0,0,0-.08-1.16Z"/><path class="cls-20" d="M364.59,88.71c.4.26.79.73.39-.13a2.89,2.89,0,0,0-3.5-1.42A2.74,2.74,0,0,0,359.35,90c0,.24.13.08.22-.08a3.21,3.21,0,0,1,5-1.22Z"/><path class="cls-21" d="M368.16,94c.22,2.1,3.5,1.82,3.59.29a3.57,3.57,0,0,1-1.53.38,3,3,0,0,1-2.06-.67Z"/><path class="cls-20" d="M380.3,84.25a7,7,0,0,0-3.88-1.12c-1.74,0-1-1-.15-1.11a6,6,0,0,1,4.41,1.62c.77.78.85,1.63-.38.61Z"/><path class="cls-20" d="M359.56,85.31a5.82,5.82,0,0,1,3.49-1.3c1.64-.07.79-1.07,0-1.11a5,5,0,0,0-3.92,1.81c-.62.82-.57,1.67.44.6Z"/><path class="cls-22" d="M587.61,277.68s-.82,7.09-.82,8.29v1.2l.59,1.22.23.49-4.24,5.94-17.39.26c-.38,0,2.28-4.11,2.28-4.11s5.63-4.24,6.64-7.21-.86-9.17-.86-9.17Z"/><path class="cls-22" d="M669.62,235.3s6.06,3.76,7,4.51l.94.74.59,1.22.24.49,7.29.38,11-13.47c.23-.3-3.1.45-3.1.45s-6.8.92-9.76-.14-8.94-6.95-8.94-6.95Z"/><path class="cls-22" d="M614.55,168.84l65.27,55.59-10.05,14.23S602.69,197,599.18,196.54s-6.35,1.14-7,3.7-2.35,79.42-2.35,79.42H572.38L563.3,182.9Z"/><path class="cls-22" d="M520.52,89.55c-4.83-3.17-16.18-15.34-20-19.48,0-.49-.41-3.31-3.49-6.89-2.19-2.52-3.84-8.29-5.27-6.65s2.12,6.21.49,6.24-9.7-9-11-7.56,6.9,9.55,5.44,9.57-8.11-8.14-9.94-6,8.72,8.88,7.74,10-7.53-3.32-9-1.64,9.22,5.66,8.37,5.67-7-.15-7.08,1c0,1.34,15.62,3.44,17.54,5.76h0c4.09,6.52,11.38,18.43,18.76,23.66,9,6.39,29.91,20,29.91,20l10.37-13.39S526.24,93.3,520.52,89.55Z"/><path class="cls-22" d="M492.23,65.65a6.55,6.55,0,0,0-.63,2.52,6.27,6.27,0,0,0,2,5.07A10.71,10.71,0,0,1,492.23,65.65Z"/><path class="cls-22" d="M616.2,74.89c3.84-4.31,11.6-19,14.23-24-.09-.48-.47-3.29,1.57-7.55,1.45-3,1.54-9,3.35-7.81s-.42,6.56,1.15,6.16,7-11.26,8.64-10.17-4.17,11-2.75,10.66,5.69-10,8-8.43-6.09,10.85-4.85,11.68,6.39-5.18,8.26-3.94-7.43,7.87-6.6,7.66,6.75-2,7.1-.85c.41,1.29-14.17,7.4-15.42,10.15h0c-2.25,7.37-6.17,20.77-11.92,27.74-7.05,8.53-23.65,27.08-23.65,27.08L589.81,103S611.66,80,616.2,74.89Z"/><path class="cls-22" d="M637.26,44.43a6.51,6.51,0,0,1,1.26,2.27,6.24,6.24,0,0,1-.64,5.42A10.71,10.71,0,0,0,637.26,44.43Z"/><path class="cls-22" d="M587.36,105.4h0a9.9,9.9,0,0,0-8.88-4.36c-10.36.71-31.38,2.37-33.37,4.36-2.66,2.66-10.63,20-3,44.27s11.77,21.76,18,21.76,35.42-13.79,35.42-13.79Z"/><path class="cls-22" d="M605.25,84.78l12.19,15.9-15.13,22.5s1.43,16.72,3.61,21.94,14.8,26.66,14.8,26.66-30.64,18.78-60.62,16c0,0-8.45-43.45-10.82-47.62s-25.23-24.86-25.23-24.86l11.1-17.93L554.31,108s35-5.66,36.71-7.35S605.25,84.78,605.25,84.78Z"/><path class="cls-22" d="M565.73,52.28S577.55,46,581.6,56.39c0,0,10.63-1.08,8.79,9.93,0,0,10.69,5.37,3.92,19.22,0,0,3,13-12.27,13.85,0,0-2.27,4.62-9.23,3.55s-8.73-2.91-8.73-2.91-12.33,3.6-16.06-7.53c0,0-8.48-2-2.79-12.9,0,0-7.39-14.11,5.63-18.34C550.86,61.26,552.38,46.84,565.73,52.28Z"/><path class="cls-22" d="M561,82.83c1,2.68.27,5.38-1.54,6s-4.06-1-5-3.68-.28-5.38,1.54-6S560,80.15,561,82.83Z"/><path class="cls-22" d="M592.85,76.25c.13,2.84-1.32,5.22-3.24,5.31s-3.59-2.14-3.73-5,1.32-5.22,3.24-5.31S592.72,73.4,592.85,76.25Z"/><path class="cls-22" d="M579.32,95.09c0,.19,1.54,6.79,2.36,10.28a2.8,2.8,0,0,1-1.58,3.19c-3.25,1.49-9.64,3.56-14.06-.44a1.88,1.88,0,0,1-.6-1.44L566,90.92Z"/><path class="cls-22" d="M569.86,58.7a17,17,0,0,0-9.25,7.21c-3.42,5.67-5.31,22,6.91,29.21s21.12-3.93,20.89-14.43S583.51,56.78,569.86,58.7Z"/><path class="cls-22" d="M589.8,101.23c5.63,4.25,11.52,26.06,13.75,31.75l1.79,10.45L582.45,103S588.59,100.31,589.8,101.23Z"/><path class="cls-22" d="M562,106.74s.69,26.87-1.33,36.1-7.32,12.46-7.32,12.46l-2.61-10.74s2.61-23.73,3.57-36.53C554.46,106.08,562,106.74,562,106.74Z"/><path class="cls-22" d="M590.71,299.18c2.6-.33-1.89-9.34-3.33-10.79L568.26,291s-9.21,4.27-11.39,6.45c-.52.51-.58,1.42,1.66,1.76C565.75,300.25,584.94,299.91,590.71,299.18Z"/><path class="cls-22" d="M684.71,251.23c-2.24,1.35-6.33-7.43-6.56-9.46l15.44-12.15s11.91-3.42,14.31-1C710.09,230.79,689.81,248.17,684.71,251.23Z"/><path class="cls-22" d="M569.66,87,581,84.26a5.21,5.21,0,0,1-4.15,5.88C570.81,91.77,569.66,87,569.66,87Z"/><path class="cls-23" d="M564.65,78.19a3.64,3.64,0,0,1,5.4-1.31c.41.31.71.69.26-.2-.76-1.49-2.75-1.78-4.17-1.22a3.31,3.31,0,0,0-2,3.23c.09.76.24,0,.52-.5Z"/><path class="cls-23" d="M578.43,76.39c-.37.34-.68.89-.41-.06a3,3,0,0,1,3.37-2.06,2.87,2.87,0,0,1,2.68,2.59c0,.25-.13.1-.24,0a3.38,3.38,0,0,0-5.4-.42Z"/><path class="cls-23" d="M577.14,79.65c.12,2.1-3.16,2.36-3.5.86a3.63,3.63,0,0,0,1.57.13,3.07,3.07,0,0,0,1.93-1Z"/><path class="cls-23" d="M562.76,72.13a7,7,0,0,1,3.65-1.73c1.72-.28.81-1.18,0-1.12a6,6,0,0,0-4.09,2.31c-.64.89-.58,1.75.47.54Z"/><path class="cls-23" d="M583.4,69.84a5.83,5.83,0,0,0-3.65-.72c-1.64.19-1-.93-.17-1.09a5,5,0,0,1,4.16,1.15c.74.71.83,1.56-.34.66Z"/><path class="cls-13" d="M605.54,276.46s-.82,7.08-.82,8.28V286l.59,1.22.23.48-4.23,6-17.4.25c-.38,0,2.28-4.11,2.28-4.11s5.63-4.24,6.64-7.21-.86-9.17-.86-9.17Z"/><path class="cls-13" d="M687.55,234.07s6.06,3.76,7,4.51l.94.75.59,1.22.24.48,7.29.38,11-13.46c.24-.3-3.1.44-3.1.44s-6.8.92-9.76-.13-8.94-6.95-8.94-6.95Z"/><path class="cls-24" d="M632.49,167.61l65.27,55.6L687.7,237.44s-67.07-41.65-70.58-42.13-6.36,1.14-7,3.7-2.36,79.42-2.36,79.42H590.32l-9.09-96.76Z"/><path class="cls-13" d="M538.45,88.32c-4.83-3.16-16.17-15.34-20-19.48-.05-.49-.41-3.3-3.5-6.88-2.19-2.53-3.84-8.29-5.27-6.66s2.12,6.22.5,6.25-9.7-9-11-7.57,6.9,9.55,5.45,9.58-8.11-8.14-9.95-6.05,8.72,8.88,7.74,10-7.52-3.33-9-1.64,9.22,5.65,8.37,5.67-7-.15-7.08,1c-.05,1.34,15.62,3.43,17.54,5.76h0c4.1,6.52,11.39,18.43,18.77,23.65,9,6.4,29.9,20,29.9,20l10.37-13.4S544.18,92.08,538.45,88.32Z"/><path class="cls-15" d="M510.16,64.43a6.51,6.51,0,0,0-.63,2.52,6.27,6.27,0,0,0,2,5.07A10.77,10.77,0,0,1,510.16,64.43Z"/><path class="cls-13" d="M634.14,73.67c3.83-4.32,11.6-19,14.22-24-.09-.48-.47-3.3,1.58-7.56,1.44-3,1.53-9,3.34-7.8s-.42,6.55,1.16,6.16,7-11.27,8.63-10.18-4.16,11-2.75,10.67,5.7-10,8-8.44-6.09,10.86-4.85,11.68,6.4-5.18,8.26-3.94-7.42,7.88-6.59,7.67,6.74-2,7.1-.85-14.18,7.4-15.43,10.15h0c-2.24,7.36-6.16,20.76-11.92,27.74-7,8.53-23.65,27.08-23.65,27.08l-13.51-10.22S629.59,78.79,634.14,73.67Z"/><path class="cls-15" d="M655.19,43.21a6.54,6.54,0,0,1,.62,7.69A10.66,10.66,0,0,0,655.19,43.21Z"/><path class="cls-24" d="M605.29,104.18h0a9.87,9.87,0,0,0-8.88-4.36c-10.36.7-31.38,2.36-33.37,4.36-2.66,2.65-10.62,20-3,44.27s11.76,21.76,18,21.76,35.41-13.79,35.41-13.79Z"/><path class="cls-14" d="M623.19,83.56l12.18,15.89L620.25,122s1.42,16.72,3.6,21.94,14.8,26.65,14.8,26.65S608,189.34,578,186.59c0,0-8.44-43.45-10.81-47.63S542,114.11,542,114.11l11.1-17.94,19.16,10.63s35-5.66,36.72-7.35S623.19,83.56,623.19,83.56Z"/><path class="cls-15" d="M583.66,51.05s11.83-6.26,15.87,4.11c0,0,10.63-1.07,8.79,9.93,0,0,10.69,5.38,3.93,19.23,0,0,3,13-12.27,13.85,0,0-2.28,4.62-9.24,3.54S582,98.8,582,98.8s-12.33,3.61-16.06-7.52c0,0-8.47-2-2.78-12.91,0,0-7.4-14.1,5.63-18.34C568.8,60,570.31,45.61,583.66,51.05Z"/><path class="cls-13" d="M578.88,81.6c1,2.69.27,5.39-1.54,6s-4.06-1-5-3.68-.27-5.39,1.54-6S577.92,78.92,578.88,81.6Z"/><path class="cls-13" d="M610.78,75c.14,2.85-1.31,5.23-3.24,5.32s-3.59-2.14-3.72-5,1.31-5.23,3.24-5.32S610.65,72.17,610.78,75Z"/><path class="cls-13" d="M597.26,93.87c0,.18,1.53,6.79,2.35,10.28a2.82,2.82,0,0,1-1.57,3.19c-3.25,1.48-9.65,3.56-14.07-.45a1.85,1.85,0,0,1-.6-1.44l.54-15.76Z"/><path class="cls-13" d="M587.79,57.48a16.93,16.93,0,0,0-9.24,7.2c-3.43,5.67-5.31,22,6.91,29.22S606.57,90,606.34,79.47,601.44,55.55,587.79,57.48Z"/><path class="cls-24" d="M607.73,100c5.63,4.26,11.52,26.06,13.75,31.75l1.8,10.46-22.9-40.44S606.52,99.09,607.73,100Z"/><path class="cls-24" d="M579.94,105.52s.68,26.87-1.34,36.1-7.32,12.46-7.32,12.46l-2.6-10.74s2.6-23.73,3.56-36.54C572.39,104.86,579.94,105.52,579.94,105.52Z"/><path class="cls-15" d="M608.64,298c2.6-.33-1.89-9.34-3.33-10.78l-19.12,2.57S577,294,574.8,296.19c-.51.52-.58,1.43,1.67,1.76C583.68,299,602.88,298.68,608.64,298Z"/><path class="cls-15" d="M702.64,250c-2.24,1.35-6.32-7.42-6.56-9.45l15.44-12.16s11.91-3.41,14.32-1C728,229.56,707.74,246.94,702.64,250Z"/><path class="cls-14" d="M587.59,85.74,598.92,83a5.2,5.2,0,0,1-4.15,5.87C588.74,90.55,587.59,85.74,587.59,85.74Z"/><path class="cls-20" d="M582.58,77a3.63,3.63,0,0,1,5.4-1.31c.41.31.71.68.26-.2-.75-1.5-2.75-1.79-4.17-1.22a3.32,3.32,0,0,0-2,3.23c.09.76.24,0,.52-.5Z"/><path class="cls-20" d="M596.36,75.17c-.37.34-.68.88-.41-.07a3,3,0,0,1,3.37-2A2.86,2.86,0,0,1,602,75.63c0,.25-.12.1-.24,0a3.37,3.37,0,0,0-5.4-.42Z"/><path class="cls-21" d="M595.07,78.42c.12,2.1-3.16,2.36-3.5.86a3.68,3.68,0,0,0,1.58.13,3,3,0,0,0,1.92-1Z"/><path class="cls-20" d="M580.69,70.91a6.93,6.93,0,0,1,3.65-1.73c1.73-.28.82-1.18,0-1.12a6,6,0,0,0-4.09,2.3c-.65.9-.59,1.75.46.55Z"/><path class="cls-20" d="M601.34,68.61a5.84,5.84,0,0,0-3.66-.71c-1.63.19-.95-.93-.16-1.1A5,5,0,0,1,601.67,68c.75.71.84,1.56-.33.66Z"/><path class="cls-25" d="M618,455.66c-4-5.58-8-11.2-12.78-15.61-4.29-3.93-9.21-6.88-13.06-11.46-5.84-7-8.7-17-12.63-26s-9.86-17.46-18.27-18.27c-2.54,6.8-5.08,13.6-8,20.23-4,9.23-8.64,18.09-12.31,27.5-8.31,21.34-11.29,44.55-14.15,67.29,0,0-4.05,30.78-6.23,52.65,7.34-14.08,22.58-21.13,33.86-15.68,5.2,2.52,9.37,7.21,14.17,10.63s10.85,5.52,16.42,2.46c8.12-4.46,11.32-17.21,18-24.89,4.72-5.45,11.29-8.12,17.08-6.92,3.4.7,6.45,2.62,9.67,4,6.32,2.65,13.27,3.09,20.12,3.51C647,497.24,632.22,475.71,618,455.66Z"/><path class="cls-25" d="M584.24,416.82c1.1,2.4,2.13,4.86,3.1,7.36A146.7,146.7,0,0,1,593,442.47c.18.74,1,4,.06,4.27-.6.18-2.54-2.81-2.9-3.31-2.09-2.92-3.58-6.42-5.51-9.5A27.72,27.72,0,0,0,572,422.83a5.22,5.22,0,0,0-2.62-.54c-2.23.26-4.07,3-4.65,5.76a23.83,23.83,0,0,0,.19,8.3L568,458a13.07,13.07,0,0,1,.1,4.5c-.32,1.51-1.33,3-2.54,3.11-1.51.17-2.49-1.71-2.9-3.49s-.6-3.82-1.69-5c-1.93-2.07-5.14-.09-7.19,2.3-4.47,5.22-7.33,12.33-8.86,19.57A108.73,108.73,0,0,0,543.08,501c0,6.49-1.91,16.59-5.49,21.72-1.66-25.11-5.28-60.37,2-89,2.88-11.21,6.93-22.27,13.14-31.4,3-4.33,7.09-8.49,11.27-7.67,2.13.41,3.86,2.07,5.51,3.68,3.44,3.34,6.89,6.65,10.3,10,1.65,1.63,2.75,4.95,3.82,7.23Z"/><path class="cls-25" d="M596.3,337.39a7.83,7.83,0,0,0-1-1.42,5,5,0,0,1-.74-3.23c0-1.41,0-2.82,0-4.22a7.28,7.28,0,0,1,.54-3.38,4.87,4.87,0,0,1,3-2.26,14.6,14.6,0,0,1,3.85-.39,3.55,3.55,0,0,1,1.38.17c4.13,1.67,3.6,7.68,3.35,11.19a1.63,1.63,0,0,1-.23.84,1.57,1.57,0,0,1-.71.43l-2.3.86a44.67,44.67,0,0,1-.7,9.79h-6s-.06-5-.07-5.41A6.25,6.25,0,0,0,596.3,337.39Z"/><path class="cls-25" d="M607.11,372a133.14,133.14,0,0,0-1.68-30.43l-10.55-1.52c-1.68,12.32-1.75,32.72-11.59,41.82a23.29,23.29,0,0,1-8.17,4.37,113,113,0,0,1-17.91,4.81q2.63,9.58,5.6,19.08c1,3.08,1.69,6.56,3.07,9.47,1.78,3.73,1.28,3.5,4.71,1.23,10.37-6.86,19.62-18,27.74-27.32,2.61-3,5.19-6.11,6.69-9.79a33.87,33.87,0,0,0,2-10.57C607.06,372.76,607.09,372.38,607.11,372Z"/><polygon class="cls-25" points="573.15 535.72 585.86 568.04 594.18 564.63 588.03 531.62 573.15 535.72"/><path class="cls-25" d="M584.62,567.13a41.67,41.67,0,0,1,1.35,9.54c.07,1.13,0,2.27.13,3.4a4.5,4.5,0,0,0,1.46,3,4.74,4.74,0,0,0,1.85.81c3.14.75,6.94-.43,8.24-3.37a9.33,9.33,0,0,0,.63-3.18c.13-2.09.07-4.19,0-6.28s-.68-2.47-1.52-3.74c-.26-.4-2.46-4.8-2.14-4.9-3.47,1.09-7.12,2-10.48,3.34C584.32,566.2,584.47,566.66,584.62,567.13Z"/><polygon class="cls-25" points="585.94 464.49 546.48 467.83 561.92 523.57 582.38 563.3 596.17 560.06 587.9 499.67 585.94 464.49"/><polygon class="cls-25" points="530.7 522.92 542.9 551.4 550.22 548.14 543.86 518.86 530.7 522.92"/><path class="cls-25" d="M541.67,550.62c.3,2-.18,4.31-.32,6.31-.2,2.66-.23,5.73,1.78,7.49a5.34,5.34,0,0,0,6.39.06,8.57,8.57,0,0,0,3.26-5.85c.75-5-.88-8-2.22-12.5,0,0-8.46,2.93-9.21,3.21A6,6,0,0,1,541.67,550.62Z"/><polygon class="cls-25" points="570.79 463.3 529.23 462.28 519.05 512.87 538.5 548.64 551.92 544.12 551.65 516.01 563.48 474.71 570.79 463.3"/><path class="cls-25" d="M553.4,387.54a20.39,20.39,0,0,0-7.1.65,16.45,16.45,0,0,0-7.48,5.8c-4.65,5.94-7,13.31-8.87,20.59a247,247,0,0,0-5.48,27.06c-1.64,11.24-2.5,22.77-.26,33.91a3.34,3.34,0,0,0,3.42,3.24,64,64,0,0,0,11.25.55q21.24-.25,42.47-.94a4,4,0,0,0,2.36-.57,3.92,3.92,0,0,0,1.11-3,161.86,161.86,0,0,0-.45-28.19c-.78-7.66-2.12-15.26-3.45-22.85l-3.09-17.62c-.65-3.73-1.34-7.54-3.23-10.83C570.29,387.88,561,387.83,553.4,387.54Z"/><path class="cls-25" d="M567.16,344a32.38,32.38,0,0,0-9.52-2.32,26.12,26.12,0,0,0-8.28.23,17.48,17.48,0,0,0-10.8,7.43c-2.86,4.4-3.58,9.82-4,15a74.86,74.86,0,0,0-.3,11.69,31.7,31.7,0,0,0,.76,5.66c.42,1.61,1.42,1.87,3,2.48,7.32,2.92,15.38,3.37,23.18,3.09,2.56-.09,5.31,0,7.54-1.32,2.66-1.52,5.58-2.65,8.33-4a4.54,4.54,0,0,0,1.59-1.1,4.39,4.39,0,0,0,.74-2.13c.94-5.83,1.47-11.8.4-17.6s-3.91-11.45-8.67-14.93A20.21,20.21,0,0,0,567.16,344Z"/><path class="cls-25" d="M572.94,367.09a7.46,7.46,0,0,0,.12-3.36c-.22-1.47-1.6-4.44-3.26-2.89a1.4,1.4,0,0,0-.23.3c-.06-.21-.12-.42-.17-.64-.59-2.32-.56-4.8-1.59-7a15.55,15.55,0,0,0-3-3.87,10.51,10.51,0,0,0-2.48-2.08,15,15,0,0,0-12.18-.51,12.4,12.4,0,0,0-6.19,5.19c-.31.53-3.74,6.95-2.38,7.12-2.22-.29-3.4,1-3.78,3.2a7.51,7.51,0,0,0,0,3.37,2.92,2.92,0,0,0,1.92,2.11,11.7,11.7,0,0,0,0,5.67,11.44,11.44,0,0,0,6.08,7.5,8,8,0,0,1,4.1,3.56,9.66,9.66,0,0,1,.65,2.87,4.43,4.43,0,0,0,.58,2.09c.73,1.05,2.17,1.23,3.45,1.31,1.55.1,3.35.1,4.34-1.09s.72-2.63,1.19-3.93c.91-2.5,4.1-4,6.11-5.54a14.46,14.46,0,0,0,5-7.15,10.88,10.88,0,0,0,.4-4.49A3.39,3.39,0,0,0,572.94,367.09Z"/><path class="cls-25" d="M576.46,365.58c-.37-4.47-2.14-8.69-3.91-12.8-.67-1.55-1.42-3.19-2.85-4.08a5.24,5.24,0,0,0-2-.71,1.43,1.43,0,0,0-1-.88,28.68,28.68,0,0,0-14.83-2.55,12.15,12.15,0,0,0-4.43,1.08,6.38,6.38,0,0,0-3.39.48c-1.52.74-2.43,2.29-3.26,3.76-2.2,3.9-4.4,7.91-5.24,12.31-.76,4-.36,8.1,0,12.14a1.58,1.58,0,0,0,.27.88,1.52,1.52,0,0,0,.71.37,19,19,0,0,0,4.72.85c.67,0,2.88-.45,3.38.13-2.93-3.38-3.69-8.21-3.12-12.64.06-.46.14-.92.22-1.37a53.21,53.21,0,0,1,3-9.53c.08.78.17,1.53.19,2.17a.76.76,0,0,0,.13.47c.21.25.61.1.91-.05,5-2.62,11-2.5,16.6-2.32,1.55,0,3.38.27,4.12,1.63l.54-3.07c.35,1.1.59,2.25.88,3.35a55.29,55.29,0,0,1,2.05,10.08c0,.46.06.92.07,1.38.1,4.47-1.16,9.19-4.43,12.24.56-.52,2.7.19,3.37.23a19.16,19.16,0,0,0,4.78-.34,1.44,1.44,0,0,0,.74-.3,1.5,1.5,0,0,0,.37-.85C576,373.67,576.79,369.62,576.46,365.58Z"/><path class="cls-25" d="M540.4,464.49c19.44.37,47.25.42,47.09-1.4l1.23,13.81c.06.64-30.16,3.05-32.94,3.18-10.74.48-21.86.23-32.32-1.68-1-4.64-.76-9.74-1.08-14.48C524.19,464.08,531.39,464.32,540.4,464.49Z"/><path class="cls-25" d="M563.44,477.76c-.17-1.53-.33-3.06-.5-4.59l-1.08-9.84a1.16,1.16,0,0,0-1.32-.89l-14.89.52c-.69-.1-1.54.27-1.51,1,.26,6.25.61,12.49.94,18.73a1.14,1.14,0,0,0,1.31.88c4-.46,8-.09,12,0,1.92.06,5.14.59,5.46-1.58A18.25,18.25,0,0,0,563.44,477.76Zm-8.52,2a54.15,54.15,0,0,0-6.62,0c-.23-4.53-.46-9.05-.73-13.57l10.77-.44,1.38,12.46a8.12,8.12,0,0,1,.18,1.62.09.09,0,0,0,0,.05h-.73C557.75,479.89,556.33,479.81,554.92,479.75Z"/><path class="cls-25" d="M565.56,399c.12-3.05-1.59-7-4.82-7.6a11.54,11.54,0,0,1,3.27-2.35,2.62,2.62,0,0,0-1.66-1.21c-.62-.23-1.24-.46-1.88-.64a1.63,1.63,0,0,1-1.64,1.07c-2,.06-4,0-6-.06a3.11,3.11,0,0,1-2.67-.94.87.87,0,0,0-.22-.21.74.74,0,0,0-.58.06,4.53,4.53,0,0,1-2,.24c.07,0,2.32,3,2.58,3.34a18.55,18.55,0,0,0-5,5.41c-5.28,9.7-4.1,21.56-7.07,32.2a1.67,1.67,0,0,0,1.48,2.59l3.68.77a1.86,1.86,0,0,0,1.07,0,1.78,1.78,0,0,0,.81-1.1c3.38-8.91,4.34-18.54,4.75-28.06a13.91,13.91,0,0,1,.67-4.5,3.46,3.46,0,0,1,.34-.59.22.22,0,0,0,.06.07c.44.32,2.27-.16,2.87-.15.92,0,1.84.13,2.75.22a3.49,3.49,0,0,0,1.25,0l0,0a13.47,13.47,0,0,1,.5,1.47c2.51,10.19,1.19,22.61,1.25,33.08a.9.9,0,0,0,1.12,1.11l6.38-.21A229.14,229.14,0,0,1,565.56,399Z"/><path class="cls-25" d="M558.24,395a2,2,0,0,0-.33.8,2.12,2.12,0,0,0,.07.71c.12.56.26,1.13.42,1.69a.71.71,0,0,0,.2.37.5.5,0,0,0,.7-.2,1.71,1.71,0,0,0,.17-.81,5.63,5.63,0,0,1,.44-1.84c.15-.35.46-.75.83-.63a.79.79,0,0,1,.43.54,9.32,9.32,0,0,1,.51,2c0,.2.18.48.36.38a.35.35,0,0,0,.11-.13,2.65,2.65,0,0,0-.14-2.21,4.08,4.08,0,0,1-.54-2.46c0-.31.47-.16.42-.71a1.14,1.14,0,0,0-.62-.84C559.9,391,558.75,394.08,558.24,395Z"/><path class="cls-25" d="M550.06,396a4.19,4.19,0,0,0,.21,1.32.52.52,0,0,1,0,.21c0,.15-.21.21-.36.26a2.29,2.29,0,0,0-1.28,1.34c-.26.59-.38,1.22-.63,1.81a.2.2,0,0,1-.11.13c-.1,0-.19-.08-.22-.18a3.49,3.49,0,0,1,.3-2.32c.45-1.2.9-2.4,1.36-3.6a.75.75,0,0,0,.06-.29c0-.38-.54-.55-.87-.36a2.17,2.17,0,0,0-.71.87,1.11,1.11,0,0,1-.88.64,2.07,2.07,0,0,1,.82-1.31c.18-.13.41-.33.31-.53s-.69,0-.88-.27a9.61,9.61,0,0,0,1.6-2,3.44,3.44,0,0,1,.55-.8c1.21-1.15.74,1.19.71,1.76C550,393.79,550,394.91,550.06,396Z"/><path class="cls-25" d="M542.29,389.73l-.08,0a4.43,4.43,0,0,0-2.87.43c-4.76,2.21-7.12,9-9.1,13.43s-3.91,8.8-5.87,13.21a43.84,43.84,0,0,0-2.88,7.73,33.58,33.58,0,0,0-.74,7.43c0,2,.06,3.95.22,5.92a9.82,9.82,0,0,0,1,4.12,3.67,3.67,0,0,0,3.49,2c1.61-.23,2.65-1.78,3.37-3.23a63.14,63.14,0,0,0,3.49-9.56q5-16.24,9.95-32.5A52,52,0,0,0,544,392.3,2.14,2.14,0,0,0,542.29,389.73Z"/><path class="cls-25" d="M527.94,407.15a14.52,14.52,0,0,1,2.31-2.39,8.32,8.32,0,0,0,1.4-1.79,5.74,5.74,0,0,0,.56-1.76,9,9,0,0,0-.63-5c-1.2-2.78-4.13-2.67-6.77-2.4-1.88.18-3.91,1-4.5,2.89a21.22,21.22,0,0,0-.49,7.37,1.07,1.07,0,0,0,.27.79,2.35,2.35,0,0,0,.45.22c1.16.64-.23,10.56,1.22,10.56h6c-.35-1.09,0-2.91.07-4.05s-.44-2.74-.09-3.95A2.06,2.06,0,0,1,527.94,407.15Z"/><path class="cls-25" d="M517.67,442.06a52.8,52.8,0,0,1-.41-10.73c.07-3.29.26-6.59.58-9.87.09-.93.72-9.71,1.31-9.79l10.55-1.52c.67,5,1,9.94,1.63,14.89a42.62,42.62,0,0,1,.58,7.46c-.13,2.75-.25,5.5-.38,8.25a18.38,18.38,0,0,1-1.1,6.56,5.56,5.56,0,0,1-10.21,1.08A16,16,0,0,1,517.67,442.06Z"/><path class="cls-25" d="M549.83,375.71l9.18-.33a4.1,4.1,0,0,1-4.12,3.9C550,379.6,549.83,375.71,549.83,375.71Z"/><path class="cls-26" d="M546.76,363.41a2.65,2.65,0,1,1-2.82,2.64,2.72,2.72,0,0,1,2.82-2.64Z"/><path class="cls-26" d="M547,364a1.9,1.9,0,1,1-1.9,1.89A1.9,1.9,0,0,1,547,364Z"/><path class="cls-26" d="M562.32,363a2.64,2.64,0,1,1-2.63,2.64,2.64,2.64,0,0,1,2.63-2.64Z"/><path class="cls-26" d="M561.9,363.81a1.9,1.9,0,1,1-1.75,1.89,1.83,1.83,0,0,1,1.75-1.89Z"/><path class="cls-26" d="M544.32,365.77a3.2,3.2,0,0,1,4.82-.73c.33.31.56.66.24-.15a3,3,0,0,0-5.55,1.28c0,.66.22,0,.49-.4Z"/><path class="cls-26" d="M546.07,364.94a.53.53,0,0,1,.54.53.54.54,0,0,1-1.07,0,.53.53,0,0,1,.53-.53Z"/><path class="cls-26" d="M561,364.65a.54.54,0,1,1-.53.54.54.54,0,0,1,.53-.54Z"/><path class="cls-26" d="M560.17,364.72c-.35.27-.67.72-.36-.09a2.64,2.64,0,0,1,3.1-1.53,2.51,2.51,0,0,1,2.14,2.46c0,.22-.12.07-.2-.06a3,3,0,0,0-4.68-.78Z"/><path class="cls-26" d="M555.53,370.31c-.06,2.1-3.36,2.07-3.56.55a3.83,3.83,0,0,0,1.56.27,3.11,3.11,0,0,0,2-.82Z"/><path class="cls-25" d="M578.65,358.81a7.67,7.67,0,0,1-3.39,2.3q-.07-.28-.18-.57a7.08,7.08,0,0,0-2.69-3.09c-3.35-2.32-8-2.93-11.17-.41A25,25,0,0,0,557.8,361c-4.76,5.82-5.93.63-9.95-2.32a9.9,9.9,0,0,0-6.87-2.15,4.31,4.31,0,0,0-2.81,1.33,5,5,0,0,0-.87,1.64c-.82,2.42-.63,5.09-.43,7.67a8.21,8.21,0,0,0,1.21,4.43,5.74,5.74,0,0,0,3.61,1.91,14,14,0,0,0,6-.18c2.1-.53,4.28-2.27,6.06-3.48,3.76,2.54,8.68,3.94,13.06,3a11,11,0,0,0,8.6-9,8.06,8.06,0,0,0,5.17-3.51C581.38,359.08,579.71,357.57,578.65,358.81Zm-30.52,8c-2.61,1.26-6.8,1.16-7.46-2.61a2.73,2.73,0,0,1,.28-1.93c1.41-2.24,6.3.78,7.53,2.15A1.47,1.47,0,0,1,548.13,366.82Zm20.69-.4a.36.36,0,0,1,0,.09c-.81,1.83-8,2.87-8.64.14-.55-2.32,3.71-4,5.08-4.72a2.78,2.78,0,0,1,1.44-.41,2.6,2.6,0,0,1,1.87,1.63A4.16,4.16,0,0,1,568.82,366.42Z"/><path class="cls-24" d="M629.8,464.58c-4-5.58-8-11.2-12.78-15.61-4.29-3.93-9.21-6.88-13.06-11.46-5.84-7-8.7-17-12.63-26s-9.86-17.46-18.27-18.27c-2.54,6.8-5.08,13.61-8,20.23-4,9.23-8.64,18.09-12.31,27.5-8.31,21.34-11.29,44.55-14.15,67.3,0,0-4,30.77-6.23,52.64,7.34-14.08,22.58-21.13,33.86-15.68,5.2,2.52,9.37,7.21,14.17,10.63s10.85,5.52,16.42,2.46c8.12-4.46,11.32-17.21,18-24.89,4.71-5.45,11.28-8.11,17.08-6.92,3.4.7,6.45,2.62,9.67,4,6.32,2.65,13.26,3.09,20.12,3.51C658.83,506.16,644,484.63,629.8,464.58Z"/><path class="cls-27" d="M596.06,425.74q1.65,3.6,3.1,7.37a146,146,0,0,1,5.68,18.28c.18.74,1,4,.06,4.27-.6.18-2.54-2.81-2.9-3.31-2.09-2.91-3.58-6.42-5.51-9.5a27.72,27.72,0,0,0-12.63-11.1,5.24,5.24,0,0,0-2.63-.54c-2.22.27-4.06,3-4.64,5.76a23.83,23.83,0,0,0,.19,8.3l3.06,21.66a12.83,12.83,0,0,1,.09,4.5c-.31,1.51-1.32,3-2.53,3.12-1.51.16-2.49-1.71-2.9-3.5s-.6-3.81-1.69-5c-1.93-2.07-5.14-.09-7.19,2.3-4.47,5.22-7.33,12.34-8.86,19.57a108.73,108.73,0,0,0-1.86,21.95c0,6.49-1.91,16.59-5.49,21.72-1.66-25.11-5.28-60.36,2.05-89,2.88-11.2,6.92-22.27,13.14-31.4,2.95-4.33,7.09-8.49,11.27-7.67,2.13.41,3.86,2.07,5.51,3.68,3.43,3.34,6.89,6.65,10.3,10,1.65,1.63,2.75,5,3.81,7.23C595.69,424.92,595.87,425.33,596.06,425.74Z"/><path class="cls-13" d="M608.12,346.31a7.83,7.83,0,0,0-1-1.42,5,5,0,0,1-.74-3.23c0-1.41,0-2.81,0-4.22a7.28,7.28,0,0,1,.54-3.38,4.87,4.87,0,0,1,3-2.26,14.6,14.6,0,0,1,3.85-.39,3.55,3.55,0,0,1,1.38.17c4.12,1.67,3.6,7.68,3.35,11.19a1.63,1.63,0,0,1-.23.84,1.57,1.57,0,0,1-.71.43l-2.3.86a44.67,44.67,0,0,1-.7,9.79h-6s-.06-5-.07-5.42A6.25,6.25,0,0,0,608.12,346.31Z"/><path class="cls-14" d="M618.93,380.92a133.14,133.14,0,0,0-1.68-30.43L606.7,349c-1.68,12.32-1.75,32.72-11.59,41.82a23.29,23.29,0,0,1-8.17,4.37A113,113,0,0,1,569,400q2.63,9.58,5.6,19.08c1,3.08,1.69,6.56,3.07,9.47,1.78,3.73,1.28,3.5,4.71,1.23,10.37-6.86,19.62-18,27.74-27.32,2.61-3,5.19-6.11,6.69-9.79a34.16,34.16,0,0,0,2-10.57C618.88,381.68,618.91,381.3,618.93,380.92Z"/><polygon class="cls-13" points="584.97 544.64 597.68 576.96 606 573.55 599.85 540.54 584.97 544.64"/><path class="cls-15" d="M596.44,576.06a41.5,41.5,0,0,1,1.35,9.53c.07,1.13,0,2.27.13,3.4a4.46,4.46,0,0,0,1.46,3,4.74,4.74,0,0,0,1.85.81c3.14.75,6.94-.43,8.24-3.37a9.33,9.33,0,0,0,.63-3.18c.13-2.09.07-4.19,0-6.28s-.68-2.47-1.52-3.74c-.26-.39-2.46-4.8-2.14-4.9-3.47,1.09-7.12,2-10.48,3.34C596.14,575.12,596.29,575.58,596.44,576.06Z"/><polygon class="cls-15" points="597.76 473.41 558.3 476.75 573.74 532.49 594.2 572.22 607.99 568.99 599.72 508.59 597.76 473.41"/><polygon class="cls-13" points="542.52 531.84 554.72 560.32 562.04 557.06 555.68 527.78 542.52 531.84"/><path class="cls-15" d="M553.49,559.54c.3,2-.18,4.32-.32,6.31-.2,2.66-.23,5.73,1.78,7.49a5.32,5.32,0,0,0,6.38.06,8.56,8.56,0,0,0,3.27-5.85c.75-5-.88-8-2.22-12.5,0,.05-8.46,2.93-9.21,3.21A6.15,6.15,0,0,1,553.49,559.54Z"/><polygon class="cls-15" points="582.61 472.22 541.05 471.2 530.87 521.79 550.32 557.56 563.74 553.04 563.47 524.93 575.29 483.63 582.61 472.22"/><path class="cls-14" d="M565.22,396.46a20.39,20.39,0,0,0-7.1.65,16.45,16.45,0,0,0-7.48,5.8c-4.65,5.94-7,13.31-8.87,20.6a246.33,246.33,0,0,0-5.48,27.05c-1.64,11.24-2.5,22.77-.26,33.91a4.28,4.28,0,0,0,.89,2.17,4.23,4.23,0,0,0,2.53,1.07,64,64,0,0,0,11.25.55q21.24-.25,42.47-.94a3,3,0,0,0,3.47-3.57,161.86,161.86,0,0,0-.45-28.19c-.79-7.66-2.12-15.26-3.45-22.85l-3.09-17.62c-.66-3.73-1.34-7.54-3.23-10.83C582.11,396.8,572.84,396.75,565.22,396.46Z"/><path class="cls-15" d="M579,353a32.69,32.69,0,0,0-9.52-2.32,26.19,26.19,0,0,0-8.29.23,17.49,17.49,0,0,0-10.79,7.43c-2.86,4.4-3.58,9.82-4,15a74.86,74.86,0,0,0-.3,11.69,31.7,31.7,0,0,0,.76,5.66c.42,1.61,1.41,1.87,3,2.48,7.32,2.92,15.38,3.37,23.18,3.09,2.56-.09,5.3,0,7.54-1.32,2.66-1.52,5.58-2.65,8.33-4a4.54,4.54,0,0,0,1.59-1.1,4.39,4.39,0,0,0,.74-2.13c.94-5.82,1.47-11.8.4-17.6s-3.91-11.45-8.67-14.93A20.75,20.75,0,0,0,579,353Z"/><path class="cls-13" d="M584.76,376a7.46,7.46,0,0,0,.12-3.36c-.22-1.47-1.6-4.44-3.26-2.89a1.25,1.25,0,0,0-.23.31c-.06-.22-.12-.43-.17-.65-.59-2.32-.56-4.8-1.6-7a15.27,15.27,0,0,0-3-3.87,11,11,0,0,0-2.48-2.08A15,15,0,0,0,562,356a12.38,12.38,0,0,0-6.19,5.18c-.31.53-3.74,6.95-2.38,7.12-2.22-.28-3.4,1-3.78,3.2a7.51,7.51,0,0,0,.05,3.37,3,3,0,0,0,1.92,2.12,11.6,11.6,0,0,0,6.11,13.16,8,8,0,0,1,4.1,3.56,9.66,9.66,0,0,1,.65,2.87,4.43,4.43,0,0,0,.58,2.09c.72,1,2.17,1.23,3.45,1.31,1.55.1,3.35.1,4.34-1.09s.72-2.63,1.19-3.92c.91-2.51,4.1-4,6.1-5.55a14.43,14.43,0,0,0,5-7.14,10.94,10.94,0,0,0,.4-4.5A3.39,3.39,0,0,0,584.76,376Z"/><path class="cls-15" d="M588.27,374.5c-.36-4.47-2.13-8.69-3.9-12.8-.67-1.55-1.42-3.19-2.85-4.08a5.24,5.24,0,0,0-2-.71,2,2,0,0,0-.1-.21,2,2,0,0,0-.89-.67,28.68,28.68,0,0,0-14.83-2.55,12,12,0,0,0-4.43,1.09,6.28,6.28,0,0,0-3.39.47c-1.52.74-2.43,2.29-3.26,3.76-2.2,3.9-4.4,7.91-5.24,12.31-.76,4-.36,8.1.05,12.14a1.58,1.58,0,0,0,.27.88,1.43,1.43,0,0,0,.71.37,19,19,0,0,0,4.72.85c.67,0,2.88-.45,3.38.13-2.93-3.38-3.69-8.21-3.12-12.64.06-.46.13-.91.22-1.37a53.21,53.21,0,0,1,3-9.53c.08.78.17,1.53.19,2.18a.79.79,0,0,0,.12.46c.22.25.62.1.91-.05,5-2.62,10.95-2.5,16.6-2.32,1.56.05,3.39.27,4.13,1.63.18-1,.36-2,.53-3.07.36,1.1.6,2.25.89,3.35a56.15,56.15,0,0,1,2,10.08c0,.46.06.92.07,1.38.1,4.47-1.16,9.19-4.43,12.24.56-.52,2.7.19,3.37.23a19.16,19.16,0,0,0,4.78-.34,1.44,1.44,0,0,0,.74-.3,1.5,1.5,0,0,0,.37-.85C587.78,382.59,588.61,378.54,588.27,374.5Z"/><path class="cls-24" d="M552.22,473.41c19.44.37,47.25.42,47.09-1.4l1.23,13.81c.06.64-30.16,3.05-32.94,3.18-10.74.48-21.86.23-32.32-1.68-1-4.64-.76-9.74-1.09-14.48C536,473,543.21,473.24,552.22,473.41Z"/><path class="cls-15" d="M575.26,486.68c-.17-1.53-.33-3.06-.5-4.59l-1.08-9.84a1.16,1.16,0,0,0-1.32-.89l-14.89.52c-.69-.1-1.54.27-1.51,1,.26,6.25.61,12.49.94,18.73a1.14,1.14,0,0,0,1.31.89c4-.47,8-.1,12,0,1.92.06,5.14.59,5.46-1.58A18.25,18.25,0,0,0,575.26,486.68Zm-8.52,2a54.15,54.15,0,0,0-6.62,0c-.23-4.53-.46-9.05-.73-13.57,3.59-.15,7.18-.3,10.77-.43l1.38,12.45a7.43,7.43,0,0,1,.17,1.62v.05H571C569.57,488.81,568.15,488.73,566.74,488.67Z"/><path class="cls-24" d="M577.38,407.93c.11-3.05-1.59-7-4.82-7.6a11.54,11.54,0,0,1,3.27-2.35,2.62,2.62,0,0,0-1.66-1.21c-.62-.23-1.24-.46-1.88-.64a1.63,1.63,0,0,1-1.64,1.07c-2,.06-3.95,0-6-.06a3.11,3.11,0,0,1-2.67-.94.77.77,0,0,0-.23-.21.72.72,0,0,0-.57.06,4.53,4.53,0,0,1-2,.24c.07,0,2.32,3,2.58,3.34a18.81,18.81,0,0,0-5,5.41c-5.28,9.7-4.11,21.56-7.07,32.2a1.67,1.67,0,0,0,1.48,2.59l3.68.77a1.82,1.82,0,0,0,1.06,0,1.76,1.76,0,0,0,.82-1.1c3.38-8.91,4.34-18.54,4.74-28.06a14.19,14.19,0,0,1,.68-4.5,3.46,3.46,0,0,1,.34-.59.22.22,0,0,0,.06.07c.44.33,2.27-.16,2.87-.15.92,0,1.84.13,2.75.22a3.49,3.49,0,0,0,1.25,0h0a12.66,12.66,0,0,1,.5,1.46c2.51,10.19,1.19,22.62,1.25,33.08a.9.9,0,0,0,1.12,1.11l6.38-.21A229.14,229.14,0,0,1,577.38,407.93Z"/><path class="cls-27" d="M570.06,403.9a2,2,0,0,0-.33.81,2.09,2.09,0,0,0,.07.7c.12.56.26,1.13.42,1.69a.64.64,0,0,0,.2.37.5.5,0,0,0,.7-.2,1.84,1.84,0,0,0,.17-.81,5.63,5.63,0,0,1,.44-1.84c.15-.35.46-.75.83-.63a.79.79,0,0,1,.43.54,9.32,9.32,0,0,1,.51,2c0,.2.18.48.36.38a.28.28,0,0,0,.1-.12,2.61,2.61,0,0,0-.13-2.21,4.13,4.13,0,0,1-.54-2.47c.05-.3.47-.16.42-.71a1.14,1.14,0,0,0-.62-.84C571.71,399.94,570.57,403,570.06,403.9Z"/><path class="cls-27" d="M561.88,405a4.19,4.19,0,0,0,.21,1.32.52.52,0,0,1,0,.21c0,.15-.21.21-.36.26a2.32,2.32,0,0,0-1.28,1.34c-.26.59-.38,1.22-.63,1.81a.2.2,0,0,1-.11.14c-.1,0-.19-.09-.22-.19a3.49,3.49,0,0,1,.3-2.32l1.35-3.6a.62.62,0,0,0,.07-.29c0-.38-.54-.55-.87-.36a2.17,2.17,0,0,0-.71.87,1.11,1.11,0,0,1-.88.64,2.1,2.1,0,0,1,.81-1.31c.19-.13.42-.33.32-.53s-.69,0-.88-.27a9.61,9.61,0,0,0,1.6-2,3.44,3.44,0,0,1,.55-.8c1.21-1.15.74,1.19.71,1.76C561.85,402.71,561.84,403.83,561.88,405Z"/><path class="cls-14" d="M554.11,398.65l-.08,0a4.42,4.42,0,0,0-2.87.43c-4.76,2.21-7.12,9-9.1,13.43s-3.92,8.8-5.87,13.21a43.84,43.84,0,0,0-2.88,7.73,33,33,0,0,0-.74,7.43c0,2,.06,3.95.22,5.92a9.82,9.82,0,0,0,1,4.12,3.66,3.66,0,0,0,3.49,2c1.61-.23,2.65-1.78,3.37-3.23a63.14,63.14,0,0,0,3.49-9.56q5-16.25,10-32.5a52,52,0,0,0,1.67-6.38A2.14,2.14,0,0,0,554.11,398.65Z"/><path class="cls-13" d="M539.76,416.07a14.5,14.5,0,0,1,2.31-2.39,8.32,8.32,0,0,0,1.4-1.79,5.74,5.74,0,0,0,.56-1.76,9,9,0,0,0-.63-5c-1.2-2.78-4.13-2.67-6.77-2.4-1.88.19-3.91,1-4.5,2.9a21.17,21.17,0,0,0-.49,7.36,1.07,1.07,0,0,0,.27.79,2.35,2.35,0,0,0,.45.22c1.16.64-.23,10.56,1.21,10.56h6c-.35-1.09,0-2.91.07-4.05s-.44-2.74-.09-3.95A2.06,2.06,0,0,1,539.76,416.07Z"/><path class="cls-14" d="M529.48,451a52.79,52.79,0,0,1-.4-10.73q.1-4.94.58-9.86c.09-.94.72-9.72,1.31-9.8l10.55-1.52c.67,4.95,1,9.94,1.63,14.9a43.5,43.5,0,0,1,.58,7.45c-.13,2.75-.25,5.5-.38,8.25a18.38,18.38,0,0,1-1.1,6.56A5.56,5.56,0,0,1,532,457.31,16.13,16.13,0,0,1,529.48,451Z"/><path class="cls-14" d="M561.65,384.63l9.18-.33a4.1,4.1,0,0,1-4.12,3.9C561.79,388.52,561.65,384.63,561.65,384.63Z"/><path class="cls-19" d="M558.58,372.33a2.65,2.65,0,1,1-2.82,2.64,2.74,2.74,0,0,1,2.82-2.64Z"/><path class="cls-20" d="M558.86,372.94a1.9,1.9,0,1,1-1.9,1.89,1.9,1.9,0,0,1,1.9-1.89Z"/><path class="cls-19" d="M574.14,372a2.64,2.64,0,1,1-2.63,2.64,2.62,2.62,0,0,1,2.63-2.64Z"/><path class="cls-20" d="M573.72,372.73a1.9,1.9,0,1,1-1.75,1.9,1.83,1.83,0,0,1,1.75-1.9Z"/><path class="cls-20" d="M556.14,374.69A3.19,3.19,0,0,1,561,374c.33.3.56.65.24-.16a3,3,0,0,0-5.55,1.28c0,.66.22,0,.49-.4Z"/><path class="cls-19" d="M557.89,373.86a.53.53,0,1,1-.53.53.53.53,0,0,1,.53-.53Z"/><path class="cls-19" d="M572.79,373.58a.53.53,0,0,1,.53.53.53.53,0,1,1-1.06,0,.52.52,0,0,1,.53-.53Z"/><path class="cls-20" d="M572,373.64c-.35.27-.67.72-.36-.09a2.64,2.64,0,0,1,3.1-1.53,2.51,2.51,0,0,1,2.14,2.46c0,.22-.12.08-.2-.06a3,3,0,0,0-4.68-.78Z"/><path class="cls-21" d="M567.35,379.23c-.06,2.1-3.36,2.07-3.56.55a3.83,3.83,0,0,0,1.56.27,3.11,3.11,0,0,0,2-.82Z"/><path class="cls-24" d="M590.47,367.73a7.73,7.73,0,0,1-3.39,2.3q-.08-.28-.18-.57a7.08,7.08,0,0,0-2.69-3.09c-3.35-2.32-8-2.93-11.17-.41a25,25,0,0,0-3.42,4c-4.77,5.82-5.93.63-10-2.32a10,10,0,0,0-6.87-2.15,4.31,4.31,0,0,0-2.81,1.33,4.93,4.93,0,0,0-.87,1.65c-.82,2.41-.63,5.08-.43,7.66a8.21,8.21,0,0,0,1.21,4.43,5.74,5.74,0,0,0,3.61,1.91,13.82,13.82,0,0,0,6-.18c2.1-.53,4.28-2.27,6.06-3.47,3.76,2.53,8.68,3.93,13.06,3a11,11,0,0,0,8.6-9,8.08,8.08,0,0,0,5.17-3.5C593.2,368,591.53,366.49,590.47,367.73Zm-30.52,8c-2.61,1.26-6.8,1.16-7.46-2.61a2.73,2.73,0,0,1,.28-1.93c1.41-2.23,6.3.78,7.53,2.15A1.47,1.47,0,0,1,560,375.74Zm20.69-.4,0,.09c-.81,1.83-8,2.87-8.64.14-.55-2.32,3.71-4,5.07-4.72a2.85,2.85,0,0,1,1.45-.41,2.6,2.6,0,0,1,1.87,1.63A4.17,4.17,0,0,1,580.64,375.34Z"/><path class="cls-15" d="M334.76,374.86s6.91-1.67,9.79-6.2,9.06-12.27,11.74-12.35-2.85-3.66-4.72-3.3-14.83,4.15-14.83,4.15l-2.2,5.86-1.83,7.13Z"/><polygon class="cls-28" points="382.19 580.36 384.58 580.36 380.78 455.41 378.39 455.41 382.19 580.36"/><polygon class="cls-28" points="317.11 580.36 314.73 580.36 318.52 455.41 320.91 455.41 317.11 580.36"/><path class="cls-28" d="M387.78,394.89h-1.9a42.29,42.29,0,0,1-5.84,1.43,156,156,0,0,1-20.25,2.38c-3.06.11-6.2.14-9,.14h-2.19c-2.83,0-6,0-9-.14a156,156,0,0,1-20.25-2.38,42.29,42.29,0,0,1-5.84-1.43h-1.9c-2.43,0-4.31,2.49-4,5.3l8.8,82.14a4.37,4.37,0,0,0,3.74,4.12l26.44,2a3.74,3.74,0,0,0,3.14-1.41,3.77,3.77,0,0,0,3.15,1.41l26.44-2a4.37,4.37,0,0,0,3.74-4.12l8.8-82.14C392.09,397.38,390.21,394.89,387.78,394.89Z"/><path class="cls-13" d="M372,401.51S385.19,378,388.4,373s11.57-24.9,11.87-25.68-5.76-10.2-4.41-10.52,2.85,5,4.3,4.33,5.65-13.35,6.48-12.72c1.53,1.18-2.28,7.89-1.46,8.31s3.31-7.38,4.92-7.15-3.06,7.16-2.61,7.77,5.3-5.92,6.18-4.52c.47.75-4.46,5.69-3.52,6.15s5.35-2.72,5.81-1.8-4.06,2.18-5.42,4.65-3.66,3.56-4.61,8.15-7.3,29.49-12.2,37.78-10.79,18.34-10.79,18.34Z"/><path class="cls-15" d="M360.34,352.68c-11.92-6.29-25.58,2-28.17,5.35s-1.32,16.18,1,20.93,4.93,14.75,10.29,12.91c1-.34,8.44-3.16,8.67-5.39,1,2,8.84,1.91,9.89,1.86,5.66-.25,4.85-10.58,5.3-15.87S364.09,354.65,360.34,352.68Z"/><path class="cls-14" d="M338.64,398.8s-5.57-.79-14.23,7.55S304.07,424.88,309.12,433l21.28-.51s12.86-15.13,13-15.92S338.64,398.8,338.64,398.8Z"/><path class="cls-14" d="M398.05,381.41l-12-7.38s-16.77,24.75-21.18,24.77h-.46c-3.43-.09-7.92-.34-12.28-.62v-.05l-.38,0-.38,0v.05c-4.36.28-8.85.53-12.28.62h-.46c-1.75.18-8.05,2.2-10.41,21.83L322.66,467a141.29,141.29,0,0,0,28.72,4.51v0l.38,0,.38,0v0A141.31,141.31,0,0,0,380.87,467l-4.51-37.55a21.26,21.26,0,0,1,3.45-14.42C388,402.92,398.05,381.41,398.05,381.41Z"/><path class="cls-13" d="M357.92,390.72c0,.16.73,6.21,1.13,9.41a2.51,2.51,0,0,1-1.7,2.7c-3.05,1-9,2.28-12.54-1.72a1.63,1.63,0,0,1-.4-1.34l2-14Z"/><path class="cls-29" d="M356.66,393.77a2.3,2.3,0,0,0,.8-.5c-.16-1.43-.28-2.49-.27-2.55l-10.83-5-.9,6.91C348.84,395.9,354,394.74,356.66,393.77Z"/><path class="cls-13" d="M337.1,377.49c1,2.25.62,4.64-.9,5.33s-3.58-.57-4.61-2.82-.62-4.64.9-5.33S336.08,375.24,337.1,377.49Z"/><path class="cls-13" d="M362.54,372.66c-.13,2.47,1.12,4.54,2.79,4.63s3.13-1.85,3.26-4.32-1.13-4.54-2.8-4.63S362.67,370.19,362.54,372.66Z"/><path class="cls-13" d="M364.7,371.32c2,10.37-3,20-11.2,21.59s-16.37-5.61-18.34-16,3-20.05,11.19-21.6S362.72,360.94,364.7,371.32Z"/><path class="cls-14" d="M344.63,398.12a12.9,12.9,0,0,0,7.44,5.74s-3.82,1.43-6,.48S342.22,401.58,344.63,398.12Z"/><path class="cls-14" d="M358.81,398.12a12.79,12.79,0,0,1-7.36,5.74s3.78,1.43,5.94.48S361.19,401.58,358.81,398.12Z"/><path class="cls-13" d="M362.31,433.49c.27-.42-.41-1.14-.93-1.67a22.24,22.24,0,0,0-4.6-2.26,31.71,31.71,0,0,0-7.53,1.15,7.4,7.4,0,0,1-2.93.41s-25.38-9.25-31.08-7.54-8,7.08-6.27,10.5,35.06,1.14,35.34,1.12c4.08,0,8,.28,8.35.27,1.36,0,3.84-1.45,4.42-1.66a4,4,0,0,1,2.53.33c.78.36,3.07,1.24,3.45,1S362.31,433.49,362.31,433.49Z"/><rect class="cls-15" x="280.56" y="442.69" width="4.72" height="138.67"/><rect class="cls-15" x="433.6" y="441.69" width="4.72" height="138.67"/><path class="cls-13" d="M347.78,553.16s-.19,12.28,1.41,15.84-1,9.09-1.22,9.86-4.29,1.49-10.57.17-6-2.78-5.27-5.08,4.44-5,4.88-7.22-.89-10.53-.89-10.53Z"/><path class="cls-15" d="M336.51,579.89c-6.46-1.36-5.33-4.48-4.55-6.85.48-1.49,2.54-3.09,3.83-4.67a11,11,0,0,0,4.16,2.56c2.86,1.17,7.08-.13,9.76-.94a31.12,31.12,0,0,1,0,8.49C349.53,579.28,343,581.25,336.51,579.89Z"/><path class="cls-24" d="M347.92,504.28c.29,10.08,1.74,60.24,1.74,60.24l-15.34.32s-12-66.51-10-76.29,9-9.9,9-9.9S347.13,477.61,347.92,504.28Z"/><path class="cls-13" d="M353.23,553.16s.19,12.28-1.41,15.84,1,9.09,1.22,9.86,4.29,1.49,10.57.17,6-2.78,5.27-5.08-4.44-5-4.87-7.22.88-10.53.88-10.53Z"/><path class="cls-15" d="M364.5,579.89c6.47-1.36,5.33-4.48,4.55-6.85-.48-1.49-2.54-3.09-3.83-4.67a11,11,0,0,1-4.16,2.56c-2.86,1.17-7.08-.13-9.76-.94a31.12,31.12,0,0,0,0,8.49C351.48,579.28,358,581.25,364.5,579.89Z"/><path class="cls-24" d="M353.1,504.28c-.3,10.08-1.75,60.24-1.75,60.24l15.34.32s12-66.51,10-76.29-9-9.9-9-9.9S353.89,477.61,353.1,504.28Z"/><rect class="cls-14" x="273.46" y="436.36" width="179" height="5.33"/><rect class="cls-28" x="284.46" y="452.16" width="150" height="65.8"/><rect class="cls-15" x="280.46" y="526.36" width="157" height="5.88"/><path class="cls-17" d="M404.62,425.53h-1.57a1.57,1.57,0,0,1,.93-.31h39.34a3.69,3.69,0,0,1,3.72,3.65v2.32a3.69,3.69,0,0,1-3.72,3.65h-38.9Z"/><path class="cls-30" d="M427,425.23a3.53,3.53,0,0,1,3.57,3.49v2.62a3.54,3.54,0,0,1-3.57,3.5H402.47v-.59h.1l6.22-.58,1.26-4.83s-2.43-2.68-2.58-2.75-4.9-.27-4.9-.27h-.1v-.58Z"/><path class="cls-31" d="M404.06,430a5.83,5.83,0,0,0-1.5-4.2h23.89a3.24,3.24,0,0,1,3.28,3.2v2a3.25,3.25,0,0,1-3.28,3.21H402.56S404.06,433.58,404.06,430Z"/><path class="cls-32" d="M429.73,429v2a3.18,3.18,0,0,1-.1.77,7,7,0,0,0-5.29-4.39c-6.86-1.4-21.78-1.6-21.78-1.6h23.89A3.24,3.24,0,0,1,429.73,429Z"/><path class="cls-24" d="M448.7,417.84h1.57a1.86,1.86,0,0,0-.93-.24H410c-2.06,0-3.73,1.29-3.73,2.89v1.84c0,1.6,1.67,2.9,3.73,2.9H448.9Z"/><path class="cls-15" d="M426.35,417.6c-2,0-3.56,1.24-3.56,2.77v2.08c0,1.53,1.6,2.77,3.56,2.77h24.5v-.46h-.1l-6.23-.46-1.26-3.84s2.43-2.12,2.59-2.17,4.9-.22,4.9-.22h.1v-.47Z"/><path class="cls-31" d="M449.26,421.4a4.23,4.23,0,0,1,1.5-3.33h-23.9c-1.81,0-3.28,1.14-3.28,2.54v1.6c0,1.41,1.47,2.55,3.28,2.55h23.9S449.26,424.23,449.26,421.4Z"/><path class="cls-32" d="M423.58,420.61v1.6a2.05,2.05,0,0,0,.1.61,6.78,6.78,0,0,1,5.29-3.48c6.87-1.11,21.79-1.27,21.79-1.27h-23.9C425.05,418.07,423.58,419.21,423.58,420.61Z"/><polygon class="cls-14" points="386.05 374.05 398 381.52 399.35 378.45 388 371.75 386.05 374.05"/><path class="cls-14" d="M347.65,384.15l9-2.14a4.11,4.11,0,0,1-3.27,4.65C348.56,388,347.65,384.15,347.65,384.15Z"/><polygon class="cls-33" points="445.76 421.36 444.25 423.76 442.56 421.36 445.76 421.36"/><path class="cls-32" d="M423.6,421.36h25.66v-.19s-25.68,0-25.68,0Z"/><polygon class="cls-34" points="407.57 430.24 409.08 432.63 410.78 430.24 407.57 430.24"/><path class="cls-32" d="M429.73,430.24H404.07v-.19s25.68,0,25.68,0Z"/><path class="cls-17" d="M408.77,410.25h-1.24a1.15,1.15,0,0,1,.73-.25h31.08a2.92,2.92,0,0,1,2.94,2.89v1.83a2.91,2.91,0,0,1-2.94,2.88H408.61Z"/><path class="cls-15" d="M426.41,410a2.79,2.79,0,0,1,2.82,2.76v2.07a2.79,2.79,0,0,1-2.82,2.76H407.07v-.47h.08l4.91-.45,1-3.82s-1.92-2.12-2.05-2.17-3.86-.22-3.86-.22h-.08V410Z"/><path class="cls-31" d="M407.94,413.79a4.57,4.57,0,0,0-1.2-3.32H426A2.59,2.59,0,0,1,428.6,413v1.59a2.58,2.58,0,0,1-2.63,2.53H406.74S407.94,416.6,407.94,413.79Z"/><path class="cls-32" d="M428.6,413v1.59a3.08,3.08,0,0,1-.07.61,5.53,5.53,0,0,0-4.18-3.47c-5.43-1.1-17.21-1.27-17.21-1.27H426A2.57,2.57,0,0,1,428.6,413Z"/><polygon class="cls-34" points="421.65 413.63 422.99 416 424.19 413.63 421.65 413.63"/><path class="cls-32" d="M428.6,413.63H408.31v-.19s20.29,0,20.29,0Z"/><path class="cls-19" d="M341.9,370.15a2.65,2.65,0,1,1-2.58,2.88,2.72,2.72,0,0,1,2.58-2.88Z"/><path class="cls-20" d="M342.23,370.73a1.89,1.89,0,1,1-1.72,2,1.89,1.89,0,0,1,1.72-2Z"/><path class="cls-19" d="M357.37,368.4a2.64,2.64,0,1,1-2.4,2.86,2.64,2.64,0,0,1,2.4-2.86Z"/><path class="cls-20" d="M357,369.21a1.9,1.9,0,1,1-1.58,2,1.82,1.82,0,0,1,1.58-2Z"/><path class="cls-20" d="M339.68,372.71a3.18,3.18,0,0,1,4.73-1.14c.36.27.62.6.22-.18a2.95,2.95,0,0,0-5.4,1.76c.07.67.21,0,.45-.44Z"/><path class="cls-19" d="M341.35,371.73a.54.54,0,0,1,.58.48.55.55,0,0,1-.49.58.53.53,0,0,1-.57-.49.52.52,0,0,1,.48-.57Z"/><path class="cls-19" d="M356.16,370.13a.54.54,0,0,1,.58.48.54.54,0,0,1-.49.58.53.53,0,0,1-.09-1.06Z"/><path class="cls-20" d="M355.37,370.26c-.32.3-.6.78-.36-.06a2.63,2.63,0,0,1,2.95-1.79,2.49,2.49,0,0,1,2.34,2.26c0,.22-.11.09-.2,0a3,3,0,0,0-4.73-.37Z"/><path class="cls-21" d="M353.24,376.07c.12,2.1-3.17,2.36-3.5.86a3.8,3.8,0,0,0,1.57.13,3.1,3.1,0,0,0,1.93-1Z"/><path class="cls-20" d="M338.86,369.55a6.93,6.93,0,0,1,3.65-1.73c1.72-.28.81-1.18,0-1.12a6,6,0,0,0-4.09,2.3c-.64.9-.58,1.76.47.55Z"/><path class="cls-20" d="M359.5,367.26a5.83,5.83,0,0,0-3.65-.72c-1.64.19-1-.93-.17-1.1a5,5,0,0,1,4.16,1.16c.74.7.83,1.55-.34.66Z"/></g></g></g></svg>